<svg xmlns="http://www.w3.org/2000/svg" width="880" height="380" viewBox="0 0 880 380" role="img">
<rect width="880" height="380" fill="#ffffff"/>
<text x="64" y="26" font-size="15" font-weight="600" fill="#1f2937" font-family="Inter, Segoe UI, Helvetica, Arial, sans-serif">Growth of 100, portfolio versus 60/40 benchmark</text>
<text x="64" y="45" font-size="11.5" fill="#6b7280" font-family="Inter, Segoe UI, Helvetica, Arial, sans-serif">Simulated price history, quarterly rebalancing, 5bp one-way costs.</text>
<line x1="64" y1="308.0" x2="856" y2="308.0" stroke="#e5e7eb" stroke-width="1"/>
<text x="56.0" y="311.5" font-size="10.5" fill="#6b7280" text-anchor="end" font-weight="normal" font-family="Inter, Segoe UI, Helvetica, Arial, sans-serif">100</text>
<line x1="64" y1="250.3" x2="856" y2="250.3" stroke="#e5e7eb" stroke-width="1"/>
<text x="56.0" y="253.8" font-size="10.5" fill="#6b7280" text-anchor="end" font-weight="normal" font-family="Inter, Segoe UI, Helvetica, Arial, sans-serif">125</text>
<line x1="64" y1="192.5" x2="856" y2="192.5" stroke="#e5e7eb" stroke-width="1"/>
<text x="56.0" y="196.0" font-size="10.5" fill="#6b7280" text-anchor="end" font-weight="normal" font-family="Inter, Segoe UI, Helvetica, Arial, sans-serif">150</text>
<line x1="64" y1="134.7" x2="856" y2="134.7" stroke="#e5e7eb" stroke-width="1"/>
<text x="56.0" y="138.2" font-size="10.5" fill="#6b7280" text-anchor="end" font-weight="normal" font-family="Inter, Segoe UI, Helvetica, Arial, sans-serif">175</text>
<line x1="64" y1="77.0" x2="856" y2="77.0" stroke="#e5e7eb" stroke-width="1"/>
<text x="56.0" y="80.5" font-size="10.5" fill="#6b7280" text-anchor="end" font-weight="normal" font-family="Inter, Segoe UI, Helvetica, Arial, sans-serif">200</text>
<text x="64.0" y="352.0" font-size="10.5" fill="#6b7280" text-anchor="middle" font-weight="normal" font-family="Inter, Segoe UI, Helvetica, Arial, sans-serif">2016-01</text>
<text x="162.8" y="352.0" font-size="10.5" fill="#6b7280" text-anchor="middle" font-weight="normal" font-family="Inter, Segoe UI, Helvetica, Arial, sans-serif">2017-04</text>
<text x="261.5" y="352.0" font-size="10.5" fill="#6b7280" text-anchor="middle" font-weight="normal" font-family="Inter, Segoe UI, Helvetica, Arial, sans-serif">2018-07</text>
<text x="360.3" y="352.0" font-size="10.5" fill="#6b7280" text-anchor="middle" font-weight="normal" font-family="Inter, Segoe UI, Helvetica, Arial, sans-serif">2019-10</text>
<text x="459.1" y="352.0" font-size="10.5" fill="#6b7280" text-anchor="middle" font-weight="normal" font-family="Inter, Segoe UI, Helvetica, Arial, sans-serif">2020-12</text>
<text x="557.9" y="352.0" font-size="10.5" fill="#6b7280" text-anchor="middle" font-weight="normal" font-family="Inter, Segoe UI, Helvetica, Arial, sans-serif">2022-03</text>
<text x="656.6" y="352.0" font-size="10.5" fill="#6b7280" text-anchor="middle" font-weight="normal" font-family="Inter, Segoe UI, Helvetica, Arial, sans-serif">2023-06</text>
<text x="755.4" y="352.0" font-size="10.5" fill="#6b7280" text-anchor="middle" font-weight="normal" font-family="Inter, Segoe UI, Helvetica, Arial, sans-serif">2024-09</text>
<text x="854.2" y="352.0" font-size="10.5" fill="#6b7280" text-anchor="middle" font-weight="normal" font-family="Inter, Segoe UI, Helvetica, Arial, sans-serif">2025-12</text>
<line x1="64" y1="334" x2="856" y2="334" stroke="#6b7280" stroke-width="1"/>
<polyline points="64.0,311.2 64.3,310.6 64.6,312.0 64.9,311.8 65.2,311.9 65.5,313.5 65.8,314.6 66.1,313.4 66.4,313.8 66.7,312.8 67.0,315.1 67.3,314.9 67.6,314.5 68.0,313.3 68.3,313.8 68.6,315.0 68.9,314.6 69.2,314.1 69.5,315.8 69.8,312.8 70.1,311.3 70.4,313.7 70.7,315.1 71.0,316.3 71.3,315.1 71.6,315.5 71.9,314.3 72.2,315.9 72.5,316.2 72.8,314.3 73.1,314.1 73.4,314.7 73.7,314.8 74.0,316.3 74.3,317.9 74.6,316.7 74.9,316.2 75.2,317.0 75.5,316.2 75.9,314.8 76.2,314.7 76.5,317.0 76.8,318.1 77.1,318.8 77.4,318.1 77.7,317.3 78.0,318.3 78.3,318.1 78.6,320.4 78.9,318.5 79.2,319.0 79.5,316.3 79.8,316.5 80.1,317.0 80.4,316.7 80.7,315.8 81.0,315.5 81.3,316.0 81.6,315.4 81.9,315.8 82.2,317.7 82.5,318.5 82.8,319.7 83.1,319.0 83.5,318.0 83.8,316.9 84.1,318.0 84.4,318.1 84.7,317.2 85.0,315.7 85.3,315.7 85.6,314.9 85.9,314.4 86.2,313.6 86.5,314.2 86.8,312.8 87.1,313.2 87.4,314.3 87.7,315.9 88.0,316.1 88.3,315.4 88.6,314.3 88.9,314.6 89.2,314.5 89.5,314.6 89.8,312.4 90.1,312.1 90.4,311.9 90.7,311.4 91.0,312.2 91.4,312.5 91.7,312.1 92.0,313.1 92.3,312.6 92.6,311.2 92.9,310.3 93.2,310.8 93.5,309.5 93.8,308.1 94.1,308.3 94.4,306.9 94.7,305.1 95.0,305.2 95.3,304.5 95.6,304.6 95.9,303.5 96.2,302.9 96.5,302.3 96.8,302.8 97.1,303.8 97.4,303.7 97.7,305.0 98.0,306.4 98.3,305.2 98.6,304.9 99.0,304.9 99.3,305.9 99.6,304.7 99.9,305.4 100.2,304.6 100.5,303.7 100.8,303.1 101.1,304.4 101.4,304.5 101.7,302.0 102.0,302.2 102.3,302.1 102.6,301.3 102.9,302.8 103.2,302.5 103.5,300.3 103.8,299.6 104.1,301.0 104.4,301.0 104.7,300.0 105.0,299.5 105.3,295.4 105.6,299.4 105.9,297.3 106.2,299.0 106.5,299.5 106.9,299.8 107.2,301.1 107.5,300.5 107.8,299.2 108.1,297.7 108.4,306.6 108.7,307.9 109.0,304.0 109.3,303.7 109.6,304.9 109.9,307.0 110.2,308.7 110.5,306.7 110.8,307.9 111.1,305.6 111.4,301.9 111.7,301.7 112.0,303.1 112.3,303.3 112.6,301.0 112.9,300.5 113.2,301.2 113.5,302.5 113.8,300.2 114.1,296.9 114.4,297.7 114.8,298.6 115.1,299.4 115.4,298.3 115.7,298.2 116.0,296.6 116.3,297.1 116.6,294.5 116.9,295.0 117.2,296.4 117.5,295.6 117.8,296.3 118.1,297.4 118.4,298.7 118.7,298.1 119.0,298.5 119.3,296.2 119.6,292.8 119.9,290.4 120.2,286.5 120.5,285.3 120.8,286.2 121.1,286.9 121.4,285.6 121.7,287.5 122.0,286.2 122.4,286.9 122.7,286.7 123.0,288.4 123.3,291.4 123.6,292.5 123.9,290.7 124.2,289.6 124.5,288.3 124.8,290.0 125.1,290.0 125.4,289.8 125.7,289.6 126.0,289.5 126.3,289.8 126.6,287.5 126.9,285.8 127.2,286.6 127.5,285.1 127.8,285.6 128.1,285.7 128.4,284.4 128.7,284.0 129.0,284.0 129.3,281.8 129.6,283.2 129.9,281.5 130.3,282.4 130.6,283.6 130.9,284.2 131.2,284.4 131.5,285.6 131.8,286.0 132.1,286.9 132.4,286.7 132.7,287.2 133.0,286.1 133.3,287.3 133.6,287.0 133.9,287.5 134.2,287.1 134.5,287.1 134.8,286.8 135.1,286.3 135.4,285.8 135.7,286.1 136.0,287.3 136.3,287.7 136.6,288.9 136.9,290.7 137.2,290.3 137.5,290.5 137.9,288.8 138.2,290.4 138.5,287.4 138.8,287.0 139.1,286.1 139.4,286.2 139.7,286.5 140.0,288.0 140.3,287.6 140.6,288.2 140.9,287.2 141.2,287.4 141.5,285.6 141.8,285.7 142.1,286.1 142.4,286.4 142.7,286.5 143.0,285.1 143.3,282.7 143.6,282.8 143.9,283.9 144.2,283.3 144.5,282.6 144.8,284.2 145.1,283.3 145.4,283.2 145.8,282.4 146.1,283.2 146.4,284.3 146.7,286.8 147.0,287.0 147.3,286.5 147.6,285.0 147.9,284.4 148.2,286.0 148.5,286.3 148.8,283.3 149.1,280.6 149.4,280.5 149.7,280.3 150.0,277.9 150.3,276.6 150.6,273.3 150.9,272.5 151.2,271.2 151.5,272.2 151.8,267.3 152.1,265.5 152.4,267.5 152.7,267.6 153.0,266.6 153.4,265.7 153.7,266.0 154.0,268.5 154.3,268.8 154.6,269.2 154.9,271.3 155.2,270.4 155.5,271.4 155.8,271.7 156.1,270.4 156.4,269.0 156.7,267.4 157.0,267.1 157.3,267.9 157.6,269.9 157.9,270.0 158.2,271.4 158.5,270.9 158.8,270.7 159.1,271.0 159.4,268.3 159.7,268.5 160.0,268.9 160.3,264.9 160.6,266.7 160.9,263.9 161.3,266.4 161.6,266.7 161.9,268.2 162.2,271.9 162.5,272.8 162.8,271.7 163.1,268.7 163.4,271.8 163.7,272.0 164.0,270.5 164.3,269.2 164.6,268.3 164.9,274.7 165.2,276.2 165.5,277.5 165.8,278.8 166.1,277.0 166.4,276.2 166.7,277.2 167.0,276.8 167.3,273.7 167.6,273.4 167.9,272.1 168.2,271.6 168.5,270.6 168.9,270.0 169.2,270.9 169.5,268.8 169.8,268.7 170.1,270.4 170.4,268.2 170.7,267.7 171.0,268.0 171.3,269.9 171.6,270.2 171.9,269.9 172.2,270.1 172.5,269.9 172.8,268.5 173.1,267.4 173.4,269.4 173.7,271.0 174.0,270.1 174.3,269.5 174.6,269.6 174.9,271.7 175.2,270.5 175.5,271.1 175.8,269.8 176.1,269.1 176.4,270.7 176.8,269.9 177.1,270.5 177.4,270.0 177.7,269.3 178.0,270.7 178.3,270.4 178.6,270.1 178.9,271.3 179.2,269.6 179.5,271.3 179.8,267.4 180.1,265.8 180.4,267.6 180.7,268.6 181.0,269.2 181.3,268.4 181.6,270.3 181.9,272.0 182.2,270.2 182.5,272.7 182.8,271.9 183.1,273.1 183.4,273.5 183.7,274.0 184.0,274.9 184.3,274.7 184.7,274.3 185.0,270.7 185.3,270.6 185.6,269.7 185.9,267.4 186.2,262.9 186.5,261.5 186.8,267.3 187.1,272.9 187.4,271.9 187.7,277.8 188.0,277.3 188.3,278.7 188.6,282.1 188.9,281.8 189.2,280.1 189.5,280.2 189.8,279.5 190.1,278.0 190.4,278.2 190.7,277.2 191.0,275.6 191.3,272.6 191.6,271.2 191.9,271.6 192.3,271.9 192.6,272.3 192.9,274.7 193.2,273.6 193.5,273.3 193.8,273.5 194.1,273.8 194.4,273.8 194.7,276.1 195.0,274.5 195.3,273.3 195.6,274.4 195.9,278.0 196.2,279.8 196.5,279.5 196.8,279.8 197.1,278.7 197.4,277.9 197.7,275.4 198.0,275.8 198.3,277.0 198.6,276.0 198.9,276.4 199.2,275.7 199.5,275.5 199.8,274.6 200.2,273.2 200.5,272.5 200.8,273.0 201.1,272.7 201.4,272.4 201.7,273.0 202.0,272.7 202.3,271.3 202.6,272.3 202.9,273.7 203.2,271.7 203.5,270.1 203.8,269.4 204.1,269.8 204.4,271.2 204.7,270.5 205.0,271.7 205.3,271.8 205.6,272.5 205.9,273.2 206.2,271.7 206.5,274.6 206.8,276.4 207.1,275.4 207.4,277.7 207.8,278.8 208.1,278.5 208.4,279.3 208.7,278.9 209.0,279.0 209.3,279.5 209.6,281.3 209.9,279.5 210.2,279.6 210.5,278.9 210.8,279.2 211.1,279.1 211.4,279.2 211.7,279.2 212.0,278.2 212.3,277.5 212.6,276.2 212.9,274.6 213.2,276.3 213.5,274.3 213.8,273.7 214.1,275.1 214.4,278.1 214.7,278.2 215.0,276.5 215.3,277.1 215.7,277.5 216.0,277.3 216.3,276.3 216.6,275.9 216.9,274.5 217.2,275.4 217.5,274.1 217.8,270.4 218.1,271.0 218.4,266.2 218.7,265.3 219.0,269.0 219.3,271.6 219.6,270.5 219.9,271.4 220.2,271.1 220.5,272.3 220.8,270.3 221.1,270.5 221.4,268.7 221.7,266.3 222.0,266.1 222.3,265.1 222.6,266.3 222.9,265.6 223.3,266.0 223.6,266.9 223.9,265.9 224.2,267.4 224.5,269.5 224.8,269.9 225.1,269.4 225.4,269.1 225.7,269.1 226.0,268.8 226.3,270.0 226.6,271.0 226.9,270.8 227.2,269.6 227.5,268.8 227.8,268.6 228.1,269.6 228.4,268.5 228.7,268.1 229.0,267.8 229.3,267.4 229.6,267.6 229.9,266.6 230.2,266.7 230.5,266.7 230.8,266.2 231.2,265.4 231.5,263.6 231.8,263.4 232.1,264.0 232.4,263.4 232.7,264.0 233.0,264.1 233.3,264.5 233.6,264.1 233.9,261.2 234.2,261.4 234.5,260.6 234.8,262.0 235.1,262.8 235.4,262.7 235.7,260.0 236.0,259.0 236.3,260.2 236.6,259.8 236.9,259.5 237.2,258.7 237.5,258.6 237.8,258.7 238.1,256.2 238.4,254.8 238.8,255.1 239.1,258.0 239.4,257.0 239.7,256.8 240.0,255.2 240.3,257.7 240.6,261.0 240.9,259.1 241.2,261.5 241.5,259.5 241.8,259.6 242.1,259.9 242.4,261.1 242.7,258.0 243.0,259.3 243.3,259.3 243.6,258.1 243.9,257.0 244.2,257.6 244.5,257.2 244.8,257.3 245.1,257.2 245.4,256.0 245.7,254.9 246.0,255.5 246.3,253.7 246.7,253.9 247.0,251.9 247.3,253.6 247.6,253.7 247.9,253.3 248.2,256.1 248.5,258.0 248.8,258.4 249.1,257.4 249.4,258.1 249.7,255.9 250.0,255.2 250.3,255.7 250.6,256.8 250.9,254.3 251.2,255.0 251.5,256.8 251.8,257.0 252.1,256.6 252.4,254.9 252.7,254.1 253.0,253.5 253.3,253.7 253.6,254.6 253.9,256.9 254.3,258.0 254.6,257.2 254.9,256.9 255.2,257.7 255.5,258.9 255.8,258.3 256.1,258.1 256.4,259.3 256.7,258.6 257.0,259.0 257.3,257.4 257.6,257.2 257.9,258.8 258.2,259.9 258.5,259.6 258.8,261.3 259.1,262.7 259.4,260.6 259.7,260.6 260.0,260.5 260.3,259.7 260.6,258.0 260.9,261.4 261.2,261.2 261.5,261.0 261.8,256.8 262.2,255.7 262.5,254.6 262.8,253.6 263.1,252.9 263.4,250.4 263.7,251.2 264.0,249.4 264.3,248.3 264.6,247.6 264.9,246.6 265.2,241.7 265.5,244.2 265.8,244.5 266.1,239.5 266.4,240.6 266.7,235.4 267.0,235.9 267.3,233.4 267.6,233.9 267.9,232.2 268.2,232.1 268.5,231.2 268.8,230.9 269.1,226.8 269.4,225.7 269.7,227.1 270.1,227.8 270.4,227.9 270.7,226.9 271.0,227.4 271.3,227.4 271.6,227.0 271.9,225.5 272.2,226.6 272.5,228.1 272.8,228.3 273.1,230.0 273.4,227.9 273.7,227.6 274.0,226.5 274.3,226.6 274.6,226.3 274.9,227.2 275.2,227.9 275.5,228.7 275.8,227.3 276.1,225.8 276.4,224.6 276.7,226.2 277.0,226.4 277.3,227.8 277.7,226.7 278.0,227.8 278.3,229.5 278.6,229.5 278.9,227.0 279.2,227.1 279.5,224.8 279.8,224.2 280.1,231.5 280.4,231.1 280.7,227.4 281.0,218.7 281.3,225.7 281.6,233.0 281.9,233.4 282.2,230.5 282.5,234.2 282.8,234.0 283.1,232.6 283.4,234.0 283.7,237.3 284.0,233.6 284.3,233.3 284.6,233.3 284.9,233.2 285.2,238.1 285.6,239.7 285.9,240.5 286.2,239.9 286.5,238.8 286.8,241.0 287.1,242.4 287.4,242.6 287.7,244.4 288.0,243.0 288.3,245.0 288.6,245.1 288.9,248.8 289.2,246.2 289.5,244.8 289.8,242.0 290.1,245.4 290.4,240.8 290.7,246.1 291.0,247.7 291.3,252.0 291.6,249.2 291.9,252.9 292.2,252.4 292.5,252.0 292.8,247.7 293.2,246.8 293.5,249.1 293.8,250.9 294.1,248.2 294.4,244.7 294.7,247.5 295.0,249.6 295.3,246.9 295.6,251.0 295.9,254.9 296.2,256.2 296.5,253.4 296.8,256.1 297.1,256.4 297.4,249.1 297.7,252.1 298.0,249.1 298.3,253.5 298.6,263.2 298.9,262.1 299.2,257.7 299.5,260.2 299.8,258.7 300.1,259.2 300.4,259.4 300.7,260.1 301.1,261.3 301.4,259.8 301.7,261.1 302.0,262.7 302.3,261.5 302.6,258.7 302.9,257.8 303.2,259.3 303.5,259.6 303.8,259.2 304.1,256.7 304.4,255.8 304.7,253.6 305.0,253.5 305.3,253.3 305.6,253.2 305.9,254.7 306.2,254.7 306.5,255.2 306.8,254.1 307.1,255.2 307.4,254.7 307.7,255.0 308.0,253.6 308.3,253.7 308.7,252.9 309.0,253.3 309.3,254.7 309.6,255.7 309.9,256.8 310.2,256.0 310.5,257.2 310.8,255.2 311.1,255.5 311.4,256.2 311.7,257.4 312.0,258.1 312.3,257.8 312.6,258.5 312.9,258.3 313.2,257.3 313.5,258.1 313.8,256.4 314.1,254.4 314.4,255.6 314.7,255.3 315.0,257.7 315.3,258.5 315.6,257.1 315.9,259.1 316.2,258.9 316.6,258.4 316.9,258.2 317.2,256.7 317.5,261.9 317.8,262.8 318.1,266.2 318.4,266.5 318.7,262.3 319.0,263.4 319.3,263.2 319.6,266.9 319.9,265.6 320.2,264.3 320.5,265.1 320.8,265.8 321.1,265.4 321.4,264.3 321.7,264.6 322.0,265.1 322.3,264.0 322.6,264.2 322.9,265.5 323.2,266.3 323.5,269.3 323.8,269.1 324.2,265.9 324.5,260.8 324.8,257.2 325.1,258.8 325.4,256.2 325.7,256.6 326.0,253.9 326.3,253.9 326.6,251.5 326.9,251.0 327.2,250.8 327.5,244.0 327.8,245.1 328.1,238.9 328.4,237.3 328.7,234.4 329.0,236.1 329.3,232.4 329.6,228.5 329.9,229.0 330.2,224.6 330.5,223.2 330.8,223.1 331.1,222.9 331.4,224.4 331.7,223.2 332.1,225.2 332.4,227.6 332.7,227.4 333.0,227.6 333.3,228.3 333.6,227.0 333.9,224.2 334.2,225.4 334.5,226.6 334.8,229.0 335.1,226.8 335.4,228.2 335.7,226.1 336.0,226.4 336.3,224.8 336.6,225.1 336.9,223.3 337.2,224.4 337.5,222.5 337.8,222.8 338.1,221.8 338.4,223.5 338.7,224.1 339.0,225.7 339.3,225.7 339.7,225.3 340.0,226.0 340.3,225.8 340.6,226.8 340.9,228.5 341.2,229.4 341.5,227.1 341.8,230.0 342.1,231.3 342.4,231.6 342.7,233.0 343.0,235.3 343.3,231.7 343.6,230.9 343.9,227.2 344.2,225.2 344.5,224.6 344.8,220.9 345.1,220.9 345.4,221.2 345.7,222.4 346.0,222.8 346.3,223.0 346.6,221.6 346.9,222.0 347.2,221.6 347.6,220.4 347.9,220.5 348.2,219.1 348.5,219.1 348.8,226.0 349.1,224.5 349.4,223.0 349.7,222.2 350.0,218.8 350.3,218.1 350.6,214.4 350.9,214.7 351.2,216.0 351.5,217.7 351.8,217.8 352.1,219.0 352.4,220.1 352.7,222.7 353.0,223.8 353.3,222.0 353.6,218.8 353.9,218.5 354.2,218.5 354.5,218.1 354.8,219.8 355.1,219.8 355.5,221.4 355.8,219.4 356.1,221.3 356.4,219.8 356.7,221.6 357.0,220.8 357.3,220.6 357.6,221.4 357.9,219.9 358.2,218.0 358.5,219.6 358.8,218.5 359.1,216.7 359.4,217.4 359.7,215.0 360.0,215.3 360.3,215.4 360.6,214.8 360.9,216.4 361.2,217.9 361.5,219.0 361.8,218.9 362.1,215.8 362.4,215.9 362.7,216.3 363.1,214.8 363.4,212.1 363.7,212.6 364.0,215.6 364.3,216.5 364.6,217.5 364.9,217.7 365.2,217.4 365.5,217.0 365.8,216.0 366.1,217.6 366.4,218.2 366.7,218.0 367.0,214.0 367.3,215.7 367.6,215.5 367.9,216.3 368.2,214.7 368.5,218.1 368.8,215.7 369.1,217.4 369.4,216.6 369.7,216.9 370.0,216.8 370.3,215.5 370.6,214.9 371.0,213.4 371.3,212.9 371.6,213.1 371.9,210.1 372.2,210.8 372.5,207.8 372.8,203.5 373.1,207.6 373.4,205.9 373.7,206.0 374.0,204.9 374.3,203.5 374.6,201.1 374.9,200.2 375.2,201.5 375.5,202.4 375.8,203.5 376.1,202.8 376.4,200.7 376.7,202.7 377.0,202.8 377.3,203.2 377.6,202.7 377.9,200.9 378.2,200.4 378.6,202.5 378.9,202.5 379.2,204.5 379.5,204.1 379.8,203.9 380.1,205.9 380.4,205.5 380.7,204.9 381.0,205.6 381.3,208.4 381.6,208.0 381.9,205.7 382.2,205.7 382.5,208.6 382.8,207.3 383.1,204.9 383.4,203.1 383.7,202.0 384.0,201.6 384.3,201.8 384.6,200.4 384.9,200.3 385.2,200.6 385.5,200.9 385.8,203.5 386.1,204.3 386.5,206.2 386.8,206.0 387.1,209.0 387.4,208.1 387.7,205.6 388.0,205.3 388.3,204.9 388.6,206.8 388.9,208.8 389.2,209.2 389.5,209.4 389.8,207.5 390.1,206.9 390.4,207.4 390.7,207.1 391.0,203.3 391.3,210.1 391.6,205.1 391.9,207.7 392.2,210.0 392.5,197.9 392.8,200.8 393.1,209.2 393.4,212.5 393.7,218.6 394.1,227.4 394.4,227.6 394.7,231.1 395.0,231.1 395.3,231.2 395.6,234.2 395.9,239.9 396.2,244.6 396.5,247.0 396.8,248.8 397.1,249.9 397.4,257.1 397.7,255.4 398.0,257.1 398.3,258.1 398.6,257.1 398.9,257.0 399.2,257.0 399.5,254.0 399.8,253.8 400.1,256.7 400.4,255.7 400.7,258.9 401.0,255.0 401.3,252.8 401.6,250.5 402.0,246.6 402.3,243.9 402.6,245.9 402.9,248.9 403.2,247.5 403.5,244.8 403.8,242.3 404.1,241.8 404.4,241.5 404.7,244.1 405.0,251.1 405.3,249.1 405.6,249.4 405.9,249.1 406.2,247.0 406.5,248.0 406.8,248.0 407.1,246.9 407.4,250.6 407.7,246.8 408.0,245.5 408.3,249.7 408.6,245.4 408.9,241.1 409.2,241.4 409.6,241.7 409.9,241.4 410.2,241.8 410.5,241.9 410.8,236.4 411.1,230.6 411.4,229.2 411.7,224.4 412.0,225.6 412.3,223.9 412.6,224.4 412.9,226.4 413.2,223.1 413.5,226.4 413.8,230.2 414.1,231.8 414.4,233.1 414.7,236.2 415.0,229.8 415.3,220.6 415.6,216.7 415.9,238.4 416.2,236.6 416.5,230.3 416.8,234.5 417.1,230.0 417.5,234.0 417.8,230.0 418.1,227.9 418.4,234.2 418.7,236.1 419.0,234.7 419.3,243.6 419.6,241.9 419.9,239.1 420.2,220.2 420.5,210.7 420.8,209.2 421.1,208.3 421.4,203.8 421.7,209.9 422.0,212.5 422.3,210.5 422.6,210.8 422.9,208.9 423.2,203.6 423.5,198.6 423.8,199.0 424.1,196.9 424.4,191.1 424.7,192.6 425.0,195.4 425.4,197.8 425.7,200.7 426.0,196.8 426.3,188.1 426.6,189.7 426.9,184.8 427.2,182.5 427.5,184.9 427.8,187.3 428.1,179.7 428.4,183.1 428.7,177.5 429.0,178.5 429.3,172.6 429.6,170.1 429.9,170.5 430.2,163.2 430.5,153.6 430.8,157.8 431.1,156.3 431.4,158.3 431.7,156.6 432.0,158.8 432.3,154.4 432.6,150.8 433.0,150.0 433.3,152.1 433.6,153.3 433.9,153.0 434.2,151.5 434.5,153.9 434.8,152.5 435.1,152.3 435.4,153.8 435.7,150.3 436.0,150.6 436.3,149.8 436.6,154.1 436.9,150.8 437.2,150.3 437.5,151.3 437.8,153.4 438.1,155.5 438.4,154.7 438.7,155.5 439.0,157.5 439.3,157.6 439.6,157.5 439.9,160.9 440.2,151.8 440.5,154.5 440.9,155.8 441.2,152.5 441.5,142.9 441.8,140.3 442.1,136.8 442.4,125.5 442.7,111.8 443.0,111.1 443.3,105.4 443.6,112.4 443.9,114.4 444.2,116.2 444.5,114.4 444.8,114.2 445.1,114.5 445.4,111.4 445.7,107.0 446.0,108.9 446.3,109.7 446.6,106.6 446.9,110.0 447.2,111.1 447.5,111.8 447.8,112.5 448.1,115.2 448.5,114.4 448.8,118.1 449.1,116.7 449.4,116.5 449.7,114.9 450.0,115.1 450.3,112.3 450.6,111.2 450.9,106.1 451.2,96.6 451.5,96.4 451.8,99.2 452.1,99.5 452.4,97.5 452.7,101.6 453.0,105.3 453.3,107.9 453.6,107.3 453.9,107.7 454.2,105.7 454.5,105.4 454.8,103.3 455.1,102.2 455.4,100.0 455.7,105.0 456.0,102.4 456.4,100.9 456.7,102.1 457.0,99.2 457.3,101.6 457.6,101.5 457.9,102.0 458.2,101.1 458.5,103.3 458.8,104.8 459.1,106.0 459.4,107.9 459.7,106.8 460.0,105.9 460.3,102.5 460.6,101.0 460.9,102.2 461.2,107.1 461.5,104.8 461.8,102.6 462.1,104.9 462.4,108.2 462.7,109.2 463.0,114.5 463.3,120.1 463.6,124.1 464.0,122.8 464.3,118.5 464.6,123.8 464.9,134.9 465.2,132.6 465.5,136.9 465.8,140.8 466.1,136.7 466.4,140.2 466.7,137.5 467.0,136.9 467.3,143.1 467.6,143.2 467.9,142.0 468.2,141.0 468.5,146.0 468.8,146.0 469.1,145.9 469.4,145.6 469.7,147.4 470.0,141.4 470.3,140.5 470.6,139.2 470.9,139.0 471.2,136.8 471.5,137.8 471.9,139.0 472.2,142.2 472.5,142.7 472.8,142.4 473.1,142.7 473.4,145.1 473.7,145.0 474.0,143.2 474.3,143.3 474.6,142.2 474.9,140.3 475.2,139.0 475.5,136.0 475.8,136.5 476.1,134.4 476.4,123.8 476.7,124.7 477.0,127.1 477.3,139.1 477.6,143.4 477.9,143.7 478.2,141.6 478.5,141.0 478.8,140.9 479.1,143.7 479.5,142.0 479.8,143.4 480.1,147.7 480.4,148.6 480.7,152.7 481.0,153.0 481.3,155.5 481.6,155.2 481.9,156.6 482.2,155.2 482.5,157.8 482.8,159.5 483.1,159.4 483.4,159.0 483.7,159.5 484.0,157.3 484.3,156.3 484.6,150.0 484.9,146.9 485.2,145.7 485.5,146.2 485.8,145.5 486.1,142.9 486.4,141.5 486.7,140.8 487.0,141.2 487.4,142.6 487.7,143.1 488.0,143.2 488.3,142.6 488.6,141.8 488.9,143.5 489.2,145.0 489.5,148.0 489.8,151.7 490.1,147.3 490.4,144.6 490.7,140.8 491.0,141.4 491.3,140.4 491.6,138.9 491.9,141.2 492.2,139.3 492.5,141.3 492.8,139.4 493.1,142.2 493.4,138.9 493.7,141.4 494.0,143.6 494.3,147.3 494.6,146.8 495.0,146.5 495.3,147.2 495.6,147.5 495.9,146.1 496.2,149.2 496.5,150.9 496.8,151.4 497.1,150.5 497.4,148.3 497.7,148.6 498.0,149.1 498.3,147.1 498.6,145.4 498.9,147.9 499.2,147.9 499.5,148.2 499.8,147.1 500.1,150.2 500.4,152.8 500.7,155.0 501.0,155.2 501.3,151.9 501.6,150.5 501.9,150.5 502.2,150.2 502.5,150.0 502.9,150.9 503.2,146.9 503.5,147.9 503.8,147.7 504.1,149.6 504.4,146.6 504.7,150.2 505.0,148.4 505.3,148.0 505.6,146.0 505.9,146.3 506.2,145.0 506.5,143.6 506.8,147.0 507.1,144.3 507.4,145.4 507.7,143.7 508.0,138.9 508.3,139.5 508.6,145.7 508.9,146.2 509.2,146.8 509.5,146.2 509.8,143.4 510.1,139.7 510.4,141.2 510.8,139.5 511.1,141.0 511.4,139.0 511.7,141.9 512.0,140.8 512.3,141.5 512.6,143.5 512.9,142.1 513.2,141.4 513.5,140.2 513.8,139.7 514.1,143.5 514.4,139.5 514.7,139.6 515.0,139.2 515.3,140.0 515.6,137.8 515.9,136.0 516.2,134.5 516.5,129.7 516.8,129.9 517.1,130.1 517.4,132.0 517.7,134.1 518.0,133.9 518.4,133.2 518.7,133.2 519.0,135.2 519.3,132.7 519.6,132.0 519.9,131.8 520.2,132.2 520.5,133.0 520.8,133.4 521.1,133.9 521.4,134.4 521.7,133.1 522.0,132.4 522.3,131.7 522.6,130.3 522.9,132.1 523.2,133.8 523.5,135.6 523.8,135.1 524.1,134.7 524.4,136.5 524.7,136.6 525.0,133.4 525.3,132.8 525.6,132.8 525.9,131.7 526.3,131.0 526.6,131.6 526.9,127.6 527.2,127.4 527.5,128.0 527.8,127.0 528.1,128.1 528.4,124.9 528.7,125.8 529.0,124.0 529.3,124.4 529.6,127.2 529.9,128.8 530.2,132.9 530.5,133.4 530.8,135.5 531.1,143.6 531.4,146.6 531.7,140.8 532.0,139.8 532.3,141.1 532.6,144.2 532.9,145.1 533.2,143.3 533.5,136.0 533.9,133.8 534.2,134.6 534.5,136.0 534.8,137.8 535.1,132.2 535.4,133.6 535.7,128.1 536.0,138.2 536.3,130.0 536.6,128.9 536.9,133.9 537.2,136.6 537.5,134.4 537.8,130.5 538.1,131.8 538.4,132.6 538.7,132.5 539.0,132.2 539.3,133.2 539.6,125.1 539.9,121.9 540.2,125.2 540.5,125.6 540.8,127.8 541.1,122.4 541.4,119.5 541.8,118.5 542.1,122.0 542.4,122.4 542.7,123.5 543.0,122.1 543.3,126.0 543.6,126.0 543.9,127.6 544.2,127.2 544.5,121.5 544.8,125.2 545.1,130.0 545.4,129.9 545.7,133.1 546.0,132.6 546.3,133.9 546.6,137.1 546.9,139.8 547.2,142.2 547.5,144.4 547.8,140.5 548.1,140.0 548.4,137.5 548.7,132.8 549.0,136.1 549.4,134.5 549.7,136.2 550.0,142.6 550.3,144.3 550.6,146.1 550.9,146.6 551.2,138.1 551.5,135.2 551.8,134.8 552.1,134.6 552.4,140.0 552.7,145.1 553.0,155.6 553.3,153.2 553.6,150.8 553.9,154.2 554.2,174.7 554.5,169.5 554.8,164.4 555.1,162.8 555.4,170.3 555.7,169.7 556.0,165.8 556.3,162.8 556.6,165.0 556.9,166.3 557.3,178.6 557.6,186.5 557.9,183.2 558.2,180.3 558.5,180.4 558.8,182.2 559.1,181.5 559.4,185.4 559.7,181.9 560.0,180.6 560.3,179.4 560.6,177.5 560.9,177.7 561.2,182.9 561.5,184.8 561.8,175.7 562.1,177.9 562.4,174.6 562.7,173.2 563.0,175.7 563.3,190.0 563.6,182.7 563.9,183.7 564.2,186.0 564.5,177.0 564.9,175.9 565.2,173.8 565.5,174.4 565.8,178.4 566.1,177.1 566.4,174.0 566.7,174.9 567.0,169.7 567.3,180.7 567.6,185.7 567.9,189.1 568.2,188.4 568.5,203.3 568.8,206.9 569.1,205.6 569.4,205.7 569.7,203.2 570.0,199.8 570.3,201.4 570.6,200.8 570.9,204.1 571.2,206.3 571.5,204.8 571.8,206.2 572.1,205.9 572.4,208.0 572.8,207.9 573.1,207.9 573.4,207.3 573.7,206.2 574.0,206.2 574.3,208.8 574.6,205.6 574.9,207.3 575.2,209.5 575.5,212.7 575.8,212.7 576.1,209.0 576.4,208.9 576.7,211.5 577.0,208.9 577.3,207.7 577.6,205.6 577.9,205.8 578.2,205.5 578.5,209.3 578.8,207.7 579.1,206.7 579.4,203.2 579.7,203.3 580.0,197.7 580.3,198.6 580.7,200.7 581.0,203.4 581.3,201.3 581.6,203.5 581.9,202.0 582.2,202.7 582.5,205.8 582.8,205.2 583.1,205.6 583.4,209.2 583.7,206.4 584.0,207.6 584.3,206.3 584.6,205.1 584.9,206.7 585.2,206.2 585.5,211.5 585.8,208.9 586.1,209.7 586.4,210.3 586.7,211.6 587.0,207.2 587.3,206.7 587.6,206.1 587.9,206.0 588.3,208.9 588.6,211.2 588.9,214.7 589.2,213.8 589.5,215.5 589.8,214.7 590.1,217.9 590.4,218.6 590.7,215.8 591.0,214.7 591.3,217.5 591.6,213.4 591.9,214.3 592.2,215.0 592.5,213.4 592.8,215.1 593.1,214.5 593.4,215.9 593.7,214.6 594.0,213.0 594.3,212.6 594.6,214.3 594.9,212.7 595.2,212.8 595.5,214.2 595.8,213.8 596.2,216.5 596.5,214.5 596.8,215.0 597.1,216.2 597.4,216.5 597.7,218.6 598.0,223.2 598.3,230.5 598.6,231.2 598.9,233.0 599.2,231.9 599.5,229.4 599.8,231.9 600.1,234.2 600.4,233.6 600.7,231.3 601.0,231.4 601.3,232.0 601.6,231.1 601.9,226.0 602.2,227.1 602.5,230.1 602.8,226.6 603.1,229.6 603.4,230.2 603.8,229.1 604.1,230.3 604.4,228.6 604.7,229.6 605.0,229.9 605.3,230.9 605.6,233.1 605.9,231.1 606.2,231.9 606.5,233.8 606.8,233.2 607.1,231.4 607.4,230.4 607.7,230.7 608.0,230.5 608.3,227.8 608.6,229.9 608.9,230.6 609.2,230.3 609.5,230.8 609.8,232.7 610.1,233.6 610.4,233.9 610.7,234.0 611.0,233.3 611.3,233.1 611.7,227.9 612.0,224.8 612.3,223.2 612.6,227.3 612.9,226.9 613.2,227.9 613.5,225.3 613.8,225.3 614.1,227.3 614.4,225.4 614.7,221.8 615.0,223.1 615.3,223.7 615.6,224.0 615.9,225.8 616.2,226.3 616.5,222.3 616.8,223.9 617.1,221.5 617.4,224.2 617.7,225.3 618.0,225.4 618.3,221.6 618.6,219.1 618.9,219.3 619.3,217.9 619.6,218.0 619.9,217.9 620.2,217.1 620.5,216.2 620.8,217.9 621.1,216.4 621.4,215.1 621.7,214.9 622.0,213.1 622.3,214.1 622.6,217.5 622.9,218.7 623.2,218.2 623.5,217.5 623.8,220.4 624.1,220.5 624.4,218.5 624.7,218.4 625.0,218.2 625.3,217.4 625.6,217.7 625.9,213.8 626.2,220.3 626.5,217.6 626.8,216.1 627.2,214.9 627.5,208.2 627.8,207.3 628.1,203.9 628.4,200.3 628.7,199.8 629.0,198.6 629.3,199.8 629.6,201.1 629.9,201.3 630.2,204.3 630.5,208.9 630.8,205.1 631.1,202.1 631.4,203.5 631.7,204.3 632.0,207.0 632.3,207.8 632.6,208.7 632.9,206.1 633.2,205.7 633.5,208.4 633.8,215.0 634.1,208.4 634.4,215.1 634.8,216.2 635.1,213.3 635.4,215.7 635.7,212.4 636.0,214.8 636.3,214.3 636.6,213.2 636.9,213.9 637.2,215.1 637.5,216.1 637.8,217.5 638.1,222.2 638.4,222.3 638.7,223.0 639.0,225.5 639.3,225.4 639.6,228.2 639.9,229.1 640.2,231.2 640.5,233.0 640.8,239.2 641.1,243.1 641.4,239.6 641.7,238.1 642.0,237.4 642.3,238.2 642.7,239.0 643.0,239.7 643.3,230.9 643.6,229.5 643.9,222.7 644.2,220.3 644.5,218.3 644.8,212.3 645.1,211.3 645.4,216.4 645.7,210.9 646.0,209.0 646.3,212.6 646.6,215.5 646.9,214.6 647.2,215.1 647.5,215.0 647.8,212.7 648.1,212.5 648.4,213.2 648.7,210.3 649.0,210.3 649.3,209.3 649.6,210.3 649.9,211.1 650.3,210.7 650.6,219.1 650.9,215.2 651.2,207.7 651.5,202.6 651.8,205.8 652.1,204.5 652.4,203.4 652.7,202.4 653.0,203.1 653.3,197.5 653.6,195.1 653.9,196.9 654.2,196.8 654.5,203.0 654.8,206.1 655.1,208.4 655.4,208.9 655.7,210.8 656.0,211.6 656.3,211.6 656.6,210.4 656.9,208.0 657.2,209.3 657.5,211.7 657.8,211.8 658.2,206.9 658.5,208.2 658.8,209.6 659.1,211.5 659.4,212.7 659.7,210.7 660.0,211.2 660.3,208.2 660.6,207.4 660.9,207.8 661.2,206.8 661.5,204.9 661.8,204.6 662.1,202.4 662.4,201.9 662.7,202.1 663.0,199.7 663.3,201.2 663.6,202.2 663.9,203.3 664.2,206.0 664.5,204.0 664.8,203.7 665.1,203.5 665.4,205.3 665.7,205.8 666.1,206.9 666.4,209.3 666.7,208.7 667.0,209.9 667.3,212.9 667.6,211.8 667.9,213.8 668.2,214.5 668.5,213.8 668.8,216.6 669.1,214.2 669.4,209.1 669.7,205.9 670.0,208.3 670.3,205.7 670.6,203.0 670.9,202.0 671.2,202.9 671.5,199.9 671.8,199.6 672.1,198.1 672.4,200.9 672.7,196.6 673.0,197.1 673.3,197.6 673.7,202.9 674.0,203.2 674.3,201.9 674.6,200.3 674.9,207.8 675.2,206.8 675.5,209.5 675.8,210.2 676.1,211.7 676.4,205.6 676.7,203.9 677.0,206.3 677.3,204.8 677.6,204.5 677.9,204.7 678.2,203.2 678.5,200.6 678.8,199.3 679.1,197.8 679.4,197.1 679.7,197.0 680.0,196.2 680.3,197.2 680.6,193.7 680.9,190.2 681.2,190.3 681.6,190.0 681.9,186.9 682.2,190.6 682.5,184.4 682.8,183.5 683.1,184.4 683.4,185.1 683.7,184.6 684.0,188.4 684.3,190.1 684.6,192.7 684.9,192.6 685.2,194.0 685.5,195.8 685.8,198.5 686.1,199.6 686.4,203.6 686.7,204.6 687.0,203.0 687.3,201.3 687.6,200.5 687.9,199.0 688.2,195.7 688.5,194.6 688.8,191.3 689.2,195.1 689.5,194.8 689.8,192.8 690.1,196.0 690.4,194.5 690.7,197.1 691.0,197.2 691.3,199.0 691.6,199.5 691.9,198.9 692.2,200.0 692.5,199.5 692.8,197.7 693.1,197.3 693.4,197.3 693.7,194.6 694.0,195.9 694.3,196.9 694.6,198.0 694.9,194.4 695.2,197.0 695.5,192.5 695.8,193.3 696.1,194.9 696.4,197.8 696.7,199.2 697.1,196.6 697.4,197.3 697.7,199.4 698.0,198.3 698.3,198.1 698.6,196.6 698.9,198.6 699.2,199.1 699.5,200.0 699.8,200.0 700.1,196.4 700.4,194.1 700.7,193.2 701.0,185.0 701.3,199.4 701.6,205.7 701.9,209.8 702.2,208.0 702.5,216.4 702.8,215.6 703.1,206.1 703.4,208.8 703.7,213.4 704.0,212.3 704.3,204.6 704.7,194.3 705.0,201.8 705.3,209.0 705.6,198.8 705.9,198.4 706.2,200.2 706.5,195.9 706.8,197.8 707.1,203.9 707.4,204.7 707.7,202.7 708.0,204.2 708.3,205.4 708.6,205.2 708.9,206.7 709.2,207.9 709.5,208.5 709.8,211.2 710.1,206.8 710.4,207.0 710.7,206.1 711.0,205.3 711.3,206.1 711.6,206.2 711.9,212.6 712.2,209.7 712.6,210.2 712.9,209.2 713.2,208.2 713.5,205.8 713.8,205.9 714.1,206.9 714.4,206.8 714.7,204.3 715.0,205.0 715.3,205.5 715.6,206.7 715.9,208.0 716.2,206.1 716.5,204.8 716.8,204.3 717.1,204.5 717.4,202.9 717.7,199.1 718.0,200.8 718.3,199.5 718.6,200.3 718.9,191.6 719.2,190.9 719.5,188.4 719.8,186.0 720.2,183.8 720.5,182.7 720.8,182.5 721.1,179.7 721.4,177.5 721.7,177.6 722.0,187.5 722.3,185.2 722.6,194.7 722.9,193.4 723.2,186.5 723.5,190.2 723.8,190.1 724.1,184.8 724.4,185.0 724.7,186.2 725.0,195.0 725.3,192.1 725.6,189.9 725.9,194.2 726.2,197.3 726.5,196.3 726.8,199.4 727.1,199.1 727.4,196.4 727.7,192.7 728.1,188.7 728.4,183.0 728.7,186.8 729.0,193.5 729.3,196.0 729.6,195.7 729.9,199.4 730.2,195.7 730.5,196.4 730.8,194.2 731.1,195.5 731.4,197.1 731.7,194.5 732.0,203.3 732.3,202.9 732.6,197.7 732.9,190.4 733.2,190.1 733.5,196.4 733.8,195.8 734.1,188.1 734.4,191.4 734.7,181.6 735.0,179.5 735.3,188.5 735.7,189.3 736.0,181.8 736.3,181.2 736.6,180.0 736.9,182.9 737.2,191.5 737.5,191.9 737.8,188.6 738.1,185.8 738.4,187.1 738.7,182.5 739.0,181.3 739.3,181.7 739.6,173.9 739.9,173.6 740.2,188.2 740.5,187.7 740.8,178.6 741.1,185.1 741.4,190.1 741.7,187.0 742.0,183.6 742.3,183.1 742.6,186.3 742.9,182.2 743.2,173.9 743.6,170.2 743.9,165.2 744.2,161.3 744.5,160.9 744.8,151.4 745.1,150.1 745.4,143.7 745.7,142.6 746.0,139.6 746.3,140.6 746.6,146.6 746.9,148.8 747.2,148.6 747.5,148.7 747.8,148.9 748.1,139.7 748.4,141.1 748.7,143.8 749.0,142.8 749.3,141.3 749.6,142.4 749.9,139.4 750.2,136.0 750.5,139.2 750.8,135.5 751.1,140.3 751.5,143.9 751.8,144.5 752.1,139.1 752.4,139.0 752.7,137.4 753.0,135.2 753.3,140.7 753.6,142.4 753.9,147.4 754.2,146.4 754.5,152.0 754.8,155.7 755.1,162.9 755.4,167.2 755.7,170.0 756.0,167.6 756.3,161.2 756.6,159.9 756.9,155.4 757.2,155.9 757.5,153.0 757.8,149.4 758.1,151.0 758.4,150.5 758.7,152.8 759.1,153.0 759.4,150.2 759.7,152.2 760.0,151.7 760.3,152.8 760.6,150.6 760.9,150.5 761.2,148.4 761.5,146.6 761.8,147.1 762.1,143.9 762.4,137.4 762.7,136.9 763.0,136.6 763.3,136.7 763.6,134.3 763.9,133.8 764.2,133.2 764.5,132.8 764.8,136.6 765.1,134.8 765.4,133.1 765.7,130.2 766.0,130.3 766.3,130.8 766.6,126.8 767.0,125.2 767.3,126.9 767.6,127.5 767.9,126.7 768.2,129.8 768.5,130.0 768.8,127.2 769.1,127.8 769.4,128.3 769.7,124.8 770.0,121.2 770.3,124.2 770.6,126.0 770.9,121.7 771.2,118.4 771.5,116.8 771.8,119.2 772.1,120.1 772.4,123.4 772.7,122.6 773.0,121.3 773.3,122.0 773.6,120.5 773.9,118.5 774.2,115.6 774.6,115.3 774.9,117.1 775.2,118.0 775.5,119.2 775.8,121.6 776.1,119.1 776.4,121.3 776.7,121.5 777.0,121.0 777.3,119.1 777.6,119.2 777.9,114.7 778.2,116.9 778.5,118.2 778.8,115.7 779.1,114.4 779.4,113.1 779.7,112.1 780.0,109.8 780.3,108.8 780.6,108.1 780.9,105.2 781.2,107.7 781.5,111.4 781.8,111.9 782.1,114.8 782.5,116.9 782.8,114.8 783.1,113.8 783.4,116.0 783.7,117.1 784.0,121.7 784.3,128.6 784.6,127.3 784.9,136.1 785.2,137.0 785.5,141.9 785.8,140.9 786.1,138.0 786.4,137.6 786.7,137.0 787.0,130.5 787.3,134.2 787.6,137.2 787.9,138.1 788.2,140.0 788.5,140.2 788.8,144.2 789.1,146.8 789.4,144.3 789.7,145.2 790.1,139.8 790.4,135.6 790.7,134.9 791.0,155.2 791.3,155.6 791.6,152.8 791.9,157.3 792.2,158.4 792.5,156.3 792.8,149.5 793.1,147.3 793.4,144.6 793.7,147.0 794.0,144.5 794.3,146.8 794.6,149.2 794.9,152.1 795.2,159.8 795.5,157.8 795.8,158.8 796.1,155.7 796.4,154.7 796.7,153.5 797.0,157.5 797.3,155.8 797.6,156.8 798.0,154.8 798.3,159.9 798.6,159.8 798.9,158.5 799.2,158.3 799.5,162.3 799.8,161.1 800.1,159.3 800.4,159.4 800.7,155.0 801.0,160.3 801.3,157.2 801.6,162.5 801.9,160.8 802.2,158.7 802.5,162.9 802.8,167.5 803.1,167.6 803.4,168.5 803.7,167.3 804.0,166.5 804.3,163.5 804.6,164.1 804.9,166.0 805.2,166.5 805.6,165.1 805.9,166.1 806.2,163.9 806.5,163.5 806.8,162.3 807.1,159.9 807.4,159.3 807.7,159.7 808.0,158.1 808.3,157.7 808.6,159.2 808.9,158.9 809.2,158.9 809.5,158.9 809.8,157.6 810.1,160.3 810.4,158.8 810.7,158.9 811.0,160.1 811.3,158.5 811.6,157.1 811.9,157.4 812.2,163.0 812.5,161.0 812.8,163.9 813.1,161.1 813.5,157.9 813.8,158.0 814.1,155.7 814.4,159.5 814.7,151.4 815.0,148.1 815.3,148.9 815.6,151.4 815.9,154.6 816.2,152.9 816.5,152.0 816.8,153.6 817.1,152.7 817.4,151.8 817.7,153.6 818.0,154.3 818.3,155.2 818.6,162.4 818.9,162.1 819.2,158.2 819.5,156.7 819.8,158.6 820.1,160.3 820.4,158.3 820.7,157.4 821.0,158.1 821.4,154.0 821.7,154.7 822.0,153.0 822.3,158.5 822.6,157.9 822.9,156.4 823.2,155.7 823.5,151.6 823.8,150.3 824.1,146.7 824.4,144.0 824.7,149.0 825.0,155.5 825.3,154.5 825.6,154.2 825.9,152.1 826.2,155.2 826.5,159.5 826.8,159.4 827.1,162.9 827.4,165.3 827.7,166.8 828.0,166.3 828.3,170.0 828.6,171.2 829.0,173.3 829.3,173.2 829.6,172.9 829.9,171.4 830.2,170.3 830.5,171.0 830.8,168.4 831.1,163.9 831.4,164.0 831.7,167.8 832.0,165.7 832.3,164.7 832.6,161.8 832.9,160.5 833.2,163.4 833.5,162.4 833.8,160.4 834.1,164.4 834.4,161.5 834.7,160.0 835.0,155.2 835.3,154.9 835.6,151.4 835.9,153.1 836.2,148.5 836.5,146.6 836.9,149.5 837.2,147.0 837.5,145.0 837.8,143.9 838.1,146.0 838.4,140.7 838.7,143.8 839.0,145.0 839.3,145.5 839.6,143.2 839.9,146.4 840.2,143.9 840.5,142.3 840.8,141.6 841.1,143.1 841.4,140.6 841.7,140.7 842.0,139.9 842.3,142.1 842.6,143.0 842.9,141.2 843.2,142.7 843.5,143.8 843.8,144.0 844.1,143.1 844.5,145.7 844.8,136.8 845.1,137.3 845.4,137.8 845.7,138.5 846.0,139.1 846.3,139.1 846.6,137.6 846.9,138.6 847.2,140.6 847.5,141.6 847.8,143.2 848.1,143.3 848.4,140.9 848.7,145.2 849.0,145.4 849.3,146.1 849.6,143.3 849.9,145.0 850.2,143.8 850.5,144.8 850.8,143.7 851.1,142.4 851.4,141.5 851.7,140.4 852.0,142.3 852.4,141.9 852.7,144.6 853.0,147.7 853.3,147.6 853.6,146.9 853.9,145.8 854.2,148.6 854.5,146.9 854.8,148.9 855.1,148.7 855.4,146.0 855.7,144.6 856.0,143.2" fill="none" stroke="#2f5d8a" stroke-width="1.9" stroke-linejoin="round" stroke-linecap="round"/>
<polyline points="64.0,311.4 64.3,310.8 64.6,312.2 64.9,312.0 65.2,312.0 65.5,312.9 65.8,313.7 66.1,312.6 66.4,313.0 66.7,312.2 67.0,314.2 67.3,314.0 67.6,313.8 68.0,313.2 68.3,313.5 68.6,314.8 68.9,314.8 69.2,314.1 69.5,315.6 69.8,313.6 70.1,312.2 70.4,314.0 70.7,315.5 71.0,316.6 71.3,315.6 71.6,316.1 71.9,315.1 72.2,316.9 72.5,317.1 72.8,315.5 73.1,315.1 73.4,315.5 73.7,315.8 74.0,317.1 74.3,318.3 74.6,316.9 74.9,316.5 75.2,317.3 75.5,316.6 75.9,315.4 76.2,314.6 76.5,317.0 76.8,318.1 77.1,318.6 77.4,318.0 77.7,317.6 78.0,318.8 78.3,319.0 78.6,320.6 78.9,319.1 79.2,319.8 79.5,317.4 79.8,317.3 80.1,318.0 80.4,317.5 80.7,317.2 81.0,316.6 81.3,317.2 81.6,317.1 81.9,317.4 82.2,318.5 82.5,319.2 82.8,320.4 83.1,319.8 83.5,319.0 83.8,318.1 84.1,318.5 84.4,318.5 84.7,318.2 85.0,317.0 85.3,316.5 85.6,315.9 85.9,315.1 86.2,314.7 86.5,315.4 86.8,314.0 87.1,314.0 87.4,314.6 87.7,316.1 88.0,316.7 88.3,315.8 88.6,315.0 88.9,315.0 89.2,315.3 89.5,314.9 89.8,313.3 90.1,312.9 90.4,313.0 90.7,312.5 91.0,313.7 91.4,313.7 91.7,313.2 92.0,313.9 92.3,313.4 92.6,312.3 92.9,311.6 93.2,312.6 93.5,311.5 93.8,310.1 94.1,310.1 94.4,309.3 94.7,307.8 95.0,307.8 95.3,306.9 95.6,307.2 95.9,306.2 96.2,305.8 96.5,305.4 96.8,305.6 97.1,306.5 97.4,306.5 97.7,307.5 98.0,308.7 98.3,307.8 98.6,307.3 99.0,307.1 99.3,307.9 99.6,307.0 99.9,307.7 100.2,307.3 100.5,306.8 100.8,306.2 101.1,307.1 101.4,307.0 101.7,305.1 102.0,305.1 102.3,305.2 102.6,304.5 102.9,305.5 103.2,305.2 103.5,303.1 103.8,302.4 104.1,303.4 104.4,303.3 104.7,302.3 105.0,301.7 105.3,298.1 105.6,301.9 105.9,300.4 106.2,302.0 106.5,302.4 106.9,302.7 107.2,303.7 107.5,303.1 107.8,301.9 108.1,300.8 108.4,308.3 108.7,309.5 109.0,306.5 109.3,306.2 109.6,306.7 109.9,308.6 110.2,310.3 110.5,308.7 110.8,309.4 111.1,307.5 111.4,304.4 111.7,304.1 112.0,305.1 112.3,305.4 112.6,303.5 112.9,302.9 113.2,303.4 113.5,304.9 113.8,303.2 114.1,299.9 114.4,300.8 114.8,301.5 115.1,302.4 115.4,301.2 115.7,301.1 116.0,299.9 116.3,300.6 116.6,297.9 116.9,298.5 117.2,299.6 117.5,298.5 117.8,299.1 118.1,299.8 118.4,300.4 118.7,299.7 119.0,300.0 119.3,298.3 119.6,295.4 119.9,293.4 120.2,289.8 120.5,288.9 120.8,290.2 121.1,290.9 121.4,289.8 121.7,291.9 122.0,291.0 122.4,291.2 122.7,291.0 123.0,292.4 123.3,295.2 123.6,296.4 123.9,294.9 124.2,293.7 124.5,292.3 124.8,293.5 125.1,293.2 125.4,293.2 125.7,292.4 126.0,292.5 126.3,292.3 126.6,290.4 126.9,289.1 127.2,289.5 127.5,288.1 127.8,288.6 128.1,288.8 128.4,287.5 128.7,287.4 129.0,287.8 129.3,286.0 129.6,287.3 129.9,285.9 130.3,286.3 130.6,287.2 130.9,287.5 131.2,287.5 131.5,289.4 131.8,290.1 132.1,290.6 132.4,290.3 132.7,290.4 133.0,289.2 133.3,290.3 133.6,289.8 133.9,290.2 134.2,289.9 134.5,289.6 134.8,289.3 135.1,288.5 135.4,288.2 135.7,289.0 136.0,290.3 136.3,290.8 136.6,291.6 136.9,293.4 137.2,293.0 137.5,293.2 137.9,291.7 138.2,293.1 138.5,290.5 138.8,290.6 139.1,289.7 139.4,289.5 139.7,290.1 140.0,291.2 140.3,290.7 140.6,291.5 140.9,290.6 141.2,290.9 141.5,289.1 141.8,289.5 142.1,289.6 142.4,289.8 142.7,290.1 143.0,288.9 143.3,286.7 143.6,287.5 143.9,288.9 144.2,288.6 144.5,288.6 144.8,289.8 145.1,289.2 145.4,289.1 145.8,288.2 146.1,289.3 146.4,290.5 146.7,292.2 147.0,292.5 147.3,291.8 147.6,290.5 147.9,289.7 148.2,290.8 148.5,290.9 148.8,288.8 149.1,286.2 149.4,286.2 149.7,285.9 150.0,283.5 150.3,282.1 150.6,279.4 150.9,278.5 151.2,277.4 151.5,278.7 151.8,274.3 152.1,272.6 152.4,273.9 152.7,273.9 153.0,273.4 153.4,272.8 153.7,273.4 154.0,275.3 154.3,275.2 154.6,276.0 154.9,277.4 155.2,276.7 155.5,277.4 155.8,278.0 156.1,277.5 156.4,275.9 156.7,274.3 157.0,274.2 157.3,274.8 157.6,276.6 157.9,276.5 158.2,278.0 158.5,277.9 158.8,277.8 159.1,278.0 159.4,275.7 159.7,275.4 160.0,275.9 160.3,272.5 160.6,274.1 160.9,272.1 161.3,274.4 161.6,275.1 161.9,276.7 162.2,279.7 162.5,280.5 162.8,279.7 163.1,277.5 163.4,280.0 163.7,280.1 164.0,278.5 164.3,277.7 164.6,276.9 164.9,282.3 165.2,283.8 165.5,285.2 165.8,286.4 166.1,284.9 166.4,284.1 166.7,285.0 167.0,284.6 167.3,281.7 167.6,281.5 167.9,279.9 168.2,279.4 168.5,278.0 168.9,277.1 169.2,278.2 169.5,276.6 169.8,277.3 170.1,278.4 170.4,276.7 170.7,276.6 171.0,276.7 171.3,278.6 171.6,278.5 171.9,278.1 172.2,278.4 172.5,278.1 172.8,276.4 173.1,275.6 173.4,276.9 173.7,278.5 174.0,278.4 174.3,278.3 174.6,277.9 174.9,280.2 175.2,278.9 175.5,279.0 175.8,277.8 176.1,277.2 176.4,278.4 176.8,277.6 177.1,278.4 177.4,278.3 177.7,277.6 178.0,279.0 178.3,278.7 178.6,278.6 178.9,279.4 179.2,278.6 179.5,280.4 179.8,277.4 180.1,275.8 180.4,276.8 180.7,277.6 181.0,278.7 181.3,278.6 181.6,280.0 181.9,281.3 182.2,279.9 182.5,281.6 182.8,280.6 183.1,281.5 183.4,282.1 183.7,282.3 184.0,282.7 184.3,282.7 184.7,282.2 185.0,278.7 185.3,278.5 185.6,277.6 185.9,275.8 186.2,271.8 186.5,270.5 186.8,275.8 187.1,280.7 187.4,279.8 187.7,284.9 188.0,284.3 188.3,285.3 188.6,288.2 188.9,287.8 189.2,286.3 189.5,286.3 189.8,285.6 190.1,284.2 190.4,284.3 190.7,284.0 191.0,282.5 191.3,280.1 191.6,278.4 191.9,278.7 192.3,278.5 192.6,279.3 192.9,280.9 193.2,280.0 193.5,279.7 193.8,280.0 194.1,280.4 194.4,279.8 194.7,281.8 195.0,280.4 195.3,279.3 195.6,280.1 195.9,283.3 196.2,285.2 196.5,284.6 196.8,284.7 197.1,283.8 197.4,283.3 197.7,280.8 198.0,281.4 198.3,282.6 198.6,281.8 198.9,281.9 199.2,281.2 199.5,280.9 199.8,280.1 200.2,278.4 200.5,277.9 200.8,277.8 201.1,277.1 201.4,276.9 201.7,277.2 202.0,277.3 202.3,276.8 202.6,277.5 202.9,278.6 203.2,277.2 203.5,275.8 203.8,275.3 204.1,275.7 204.4,276.8 204.7,276.5 205.0,277.7 205.3,277.7 205.6,278.4 205.9,278.8 206.2,277.7 206.5,279.8 206.8,281.1 207.1,280.5 207.4,282.1 207.8,282.7 208.1,282.5 208.4,283.5 208.7,283.2 209.0,283.2 209.3,283.8 209.6,285.5 209.9,283.6 210.2,283.7 210.5,283.2 210.8,283.8 211.1,283.1 211.4,282.8 211.7,282.7 212.0,281.6 212.3,280.8 212.6,279.8 212.9,278.1 213.2,279.4 213.5,278.4 213.8,277.9 214.1,279.3 214.4,282.2 214.7,282.0 215.0,280.6 215.3,281.2 215.7,281.3 216.0,280.6 216.3,279.7 216.6,279.4 216.9,278.8 217.2,279.1 217.5,278.1 217.8,274.9 218.1,274.8 218.4,270.6 218.7,269.8 219.0,273.1 219.3,275.3 219.6,274.3 219.9,274.9 220.2,275.1 220.5,276.4 220.8,274.6 221.1,274.8 221.4,273.1 221.7,271.2 222.0,271.6 222.3,271.2 222.6,272.4 222.9,271.5 223.3,271.6 223.6,272.7 223.9,271.8 224.2,272.8 224.5,274.3 224.8,274.4 225.1,274.2 225.4,274.1 225.7,274.0 226.0,273.7 226.3,275.0 226.6,275.8 226.9,275.5 227.2,274.5 227.5,273.7 227.8,273.9 228.1,274.5 228.4,273.3 228.7,273.4 229.0,273.0 229.3,272.6 229.6,273.3 229.9,271.8 230.2,271.7 230.5,271.7 230.8,271.2 231.2,270.3 231.5,268.9 231.8,268.6 232.1,269.2 232.4,268.8 232.7,269.5 233.0,269.5 233.3,269.9 233.6,270.0 233.9,267.2 234.2,266.8 234.5,265.9 234.8,266.5 235.1,267.3 235.4,267.4 235.7,264.9 236.0,264.0 236.3,264.9 236.6,264.4 236.9,264.0 237.2,263.3 237.5,263.5 237.8,263.7 238.1,261.5 238.4,260.0 238.8,260.7 239.1,262.9 239.4,261.5 239.7,261.3 240.0,259.9 240.3,262.1 240.6,264.7 240.9,262.9 241.2,264.7 241.5,263.1 241.8,262.9 242.1,263.0 242.4,263.9 242.7,261.3 243.0,262.3 243.3,262.5 243.6,261.3 243.9,260.6 244.2,261.1 244.5,260.6 244.8,259.8 245.1,259.6 245.4,258.3 245.7,257.1 246.0,257.8 246.3,256.5 246.7,256.8 247.0,255.0 247.3,256.5 247.6,256.6 247.9,256.0 248.2,258.2 248.5,260.1 248.8,261.3 249.1,260.4 249.4,260.8 249.7,259.1 250.0,258.1 250.3,258.3 250.6,259.1 250.9,256.6 251.2,257.1 251.5,258.9 251.8,259.4 252.1,259.2 252.4,257.6 252.7,256.5 253.0,255.7 253.3,256.1 253.6,257.0 253.9,259.3 254.3,260.0 254.6,259.4 254.9,258.6 255.2,259.7 255.5,260.6 255.8,259.8 256.1,259.5 256.4,260.5 256.7,260.1 257.0,259.8 257.3,258.8 257.6,258.5 257.9,260.4 258.2,260.7 258.5,260.2 258.8,261.5 259.1,262.8 259.4,260.8 259.7,260.8 260.0,260.5 260.3,259.6 260.6,258.4 260.9,261.5 261.2,260.7 261.5,260.4 261.8,257.1 262.2,256.6 262.5,255.1 262.8,254.1 263.1,253.6 263.4,251.3 263.7,252.4 264.0,250.8 264.3,250.3 264.6,249.4 264.9,249.1 265.2,245.2 265.5,247.2 265.8,247.4 266.1,243.0 266.4,244.5 266.7,240.1 267.0,240.3 267.3,237.8 267.6,238.3 267.9,236.2 268.2,236.1 268.5,235.4 268.8,235.6 269.1,232.0 269.4,231.0 269.7,232.3 270.1,233.1 270.4,233.0 270.7,232.0 271.0,232.2 271.3,232.1 271.6,231.8 271.9,230.3 272.2,231.4 272.5,233.2 272.8,233.5 273.1,235.2 273.4,233.8 273.7,233.0 274.0,232.0 274.3,232.2 274.6,232.3 274.9,233.4 275.2,233.8 275.5,234.7 275.8,233.2 276.1,233.1 276.4,231.6 276.7,232.9 277.0,233.2 277.3,234.4 277.7,233.6 278.0,234.6 278.3,236.8 278.6,236.6 278.9,234.9 279.2,234.9 279.5,232.4 279.8,231.9 280.1,237.5 280.4,237.1 280.7,233.6 281.0,225.9 281.3,232.0 281.6,238.5 281.9,239.0 282.2,236.8 282.5,239.4 282.8,238.8 283.1,237.3 283.4,238.5 283.7,241.6 284.0,238.9 284.3,238.7 284.6,239.0 284.9,239.7 285.2,243.6 285.6,245.0 285.9,245.7 286.2,245.5 286.5,244.6 286.8,246.1 287.1,247.0 287.4,247.6 287.7,249.6 288.0,248.5 288.3,250.5 288.6,251.4 288.9,254.2 289.2,251.7 289.5,250.3 289.8,247.9 290.1,251.2 290.4,247.9 290.7,252.7 291.0,254.1 291.3,257.2 291.6,255.1 291.9,258.6 292.2,257.7 292.5,256.9 292.8,253.4 293.2,252.3 293.5,254.6 293.8,256.8 294.1,254.3 294.4,251.5 294.7,254.0 295.0,256.0 295.3,254.3 295.6,257.6 295.9,260.5 296.2,261.2 296.5,258.9 296.8,261.3 297.1,262.0 297.4,254.9 297.7,257.1 298.0,254.4 298.3,257.8 298.6,265.6 298.9,264.5 299.2,261.1 299.5,263.1 299.8,262.2 300.1,262.8 300.4,262.8 300.7,263.1 301.1,264.2 301.4,262.5 301.7,263.1 302.0,264.4 302.3,263.5 302.6,261.5 302.9,261.0 303.2,262.5 303.5,262.7 303.8,262.1 304.1,260.4 304.4,260.1 304.7,257.9 305.0,257.3 305.3,257.4 305.6,257.4 305.9,258.5 306.2,258.3 306.5,258.8 306.8,258.2 307.1,259.5 307.4,259.6 307.7,259.9 308.0,258.5 308.3,258.9 308.7,258.3 309.0,258.5 309.3,259.6 309.6,260.8 309.9,261.6 310.2,261.2 310.5,261.9 310.8,260.3 311.1,260.6 311.4,260.4 311.7,262.0 312.0,262.4 312.3,262.0 312.6,262.4 312.9,261.3 313.2,260.4 313.5,260.9 313.8,259.4 314.1,257.3 314.4,258.4 314.7,258.3 315.0,259.9 315.3,260.4 315.6,259.1 315.9,260.7 316.2,260.7 316.6,260.1 316.9,260.1 317.2,259.2 317.5,264.0 317.8,264.6 318.1,267.8 318.4,268.0 318.7,264.0 319.0,264.8 319.3,264.3 319.6,267.7 319.9,266.4 320.2,265.3 320.5,266.7 320.8,267.5 321.1,266.4 321.4,265.9 321.7,266.1 322.0,266.5 322.3,265.9 322.6,266.2 322.9,267.9 323.2,268.9 323.5,271.5 323.8,271.0 324.2,268.3 324.5,263.4 324.8,260.9 325.1,262.2 325.4,259.8 325.7,260.4 326.0,258.5 326.3,258.5 326.6,255.9 326.9,255.5 327.2,255.0 327.5,249.4 327.8,250.1 328.1,244.3 328.4,243.1 328.7,240.7 329.0,242.1 329.3,239.3 329.6,235.7 329.9,236.0 330.2,232.1 330.5,230.8 330.8,230.2 331.1,230.5 331.4,231.8 331.7,231.1 332.1,233.1 332.4,235.6 332.7,235.1 333.0,235.0 333.3,235.1 333.6,234.3 333.9,231.8 334.2,232.4 334.5,233.0 334.8,235.4 335.1,233.1 335.4,234.0 335.7,232.0 336.0,232.2 336.3,231.5 336.6,231.8 336.9,230.6 337.2,231.1 337.5,229.0 337.8,229.6 338.1,228.9 338.4,230.9 338.7,230.9 339.0,232.4 339.3,231.8 339.7,231.4 340.0,231.6 340.3,230.8 340.6,231.6 340.9,232.9 341.2,234.0 341.5,232.1 341.8,234.5 342.1,235.4 342.4,235.9 342.7,236.9 343.0,239.1 343.3,236.0 343.6,234.8 343.9,232.0 344.2,229.8 344.5,229.6 344.8,226.7 345.1,226.9 345.4,227.8 345.7,229.2 346.0,229.2 346.3,229.9 346.6,228.7 346.9,229.5 347.2,229.5 347.6,228.8 347.9,228.2 348.2,227.2 348.5,226.9 348.8,231.9 349.1,230.9 349.4,229.9 349.7,228.7 350.0,225.6 350.3,225.4 350.6,222.2 350.9,222.6 351.2,223.7 351.5,225.3 351.8,225.6 352.1,226.6 352.4,227.6 352.7,229.6 353.0,230.5 353.3,228.9 353.6,226.0 353.9,226.4 354.2,226.5 354.5,226.1 354.8,227.7 355.1,228.1 355.5,229.5 355.8,228.3 356.1,229.4 356.4,228.7 356.7,230.2 357.0,229.6 357.3,229.7 357.6,230.6 357.9,229.2 358.2,227.2 358.5,228.1 358.8,227.1 359.1,225.9 359.4,226.9 359.7,224.9 360.0,225.2 360.3,225.3 360.6,224.8 360.9,226.4 361.2,227.4 361.5,228.1 361.8,228.0 362.1,225.5 362.4,225.7 362.7,226.1 363.1,224.9 363.4,222.6 363.7,222.8 364.0,225.3 364.3,226.0 364.6,226.8 364.9,227.0 365.2,227.0 365.5,226.9 365.8,226.3 366.1,227.7 366.4,228.2 366.7,228.4 367.0,224.8 367.3,225.9 367.6,225.8 367.9,226.7 368.2,225.7 368.5,228.8 368.8,226.9 369.1,228.3 369.4,227.6 369.7,227.8 370.0,227.5 370.3,226.0 370.6,225.2 371.0,223.7 371.3,222.8 371.6,222.9 371.9,220.5 372.2,221.0 372.5,218.4 372.8,214.8 373.1,218.8 373.4,217.0 373.7,217.1 374.0,216.2 374.3,214.9 374.6,212.9 374.9,212.0 375.2,213.4 375.5,213.7 375.8,214.2 376.1,213.2 376.4,211.1 376.7,212.8 377.0,212.3 377.3,213.3 377.6,212.8 377.9,211.1 378.2,211.0 378.6,212.4 378.9,212.7 379.2,214.5 379.5,214.5 379.8,214.4 380.1,216.1 380.4,215.0 380.7,214.7 381.0,214.9 381.3,216.7 381.6,216.1 381.9,214.3 382.2,214.2 382.5,216.8 382.8,215.3 383.1,213.3 383.4,211.8 383.7,210.8 384.0,210.4 384.3,210.2 384.6,209.5 384.9,209.2 385.2,209.0 385.5,209.7 385.8,212.7 386.1,213.3 386.5,215.2 386.8,214.7 387.1,217.8 387.4,216.9 387.7,215.1 388.0,214.7 388.3,214.7 388.6,216.1 388.9,217.2 389.2,217.7 389.5,218.0 389.8,216.8 390.1,216.4 390.4,217.3 390.7,217.5 391.0,213.6 391.3,219.0 391.6,214.7 391.9,217.6 392.2,219.7 392.5,209.3 392.8,211.8 393.1,219.0 393.4,222.0 393.7,226.7 394.1,234.5 394.4,234.7 394.7,238.0 395.0,238.3 395.3,237.8 395.6,239.7 395.9,244.8 396.2,248.7 396.5,251.0 396.8,252.0 397.1,252.6 397.4,259.2 397.7,258.0 398.0,259.7 398.3,260.2 398.6,258.7 398.9,258.5 399.2,258.7 399.5,256.7 399.8,256.6 400.1,258.7 400.4,258.2 400.7,261.0 401.0,257.1 401.3,255.6 401.6,253.7 402.0,250.0 402.3,247.8 402.6,250.4 402.9,252.4 403.2,250.7 403.5,248.2 403.8,246.3 404.1,246.0 404.4,245.5 404.7,247.3 405.0,253.5 405.3,252.3 405.6,252.2 405.9,252.4 406.2,250.1 406.5,250.9 406.8,250.9 407.1,250.2 407.4,253.5 407.7,250.2 408.0,248.7 408.3,251.5 408.6,248.2 408.9,244.7 409.2,244.5 409.6,245.1 409.9,245.0 410.2,245.9 410.5,246.2 410.8,241.7 411.1,237.1 411.4,235.7 411.7,231.9 412.0,232.4 412.3,231.2 412.6,231.8 412.9,233.7 413.2,230.3 413.5,233.4 413.8,237.2 414.1,238.7 414.4,240.6 414.7,242.9 415.0,237.4 415.3,229.0 415.6,225.8 415.9,244.8 416.2,243.5 416.5,237.7 416.8,241.9 417.1,238.0 417.5,241.4 417.8,238.3 418.1,236.5 418.4,242.0 418.7,243.5 419.0,242.1 419.3,250.0 419.6,248.3 419.9,246.0 420.2,229.8 420.5,221.8 420.8,219.6 421.1,218.8 421.4,214.8 421.7,219.5 422.0,221.5 422.3,219.2 422.6,219.1 422.9,217.4 423.2,212.7 423.5,208.4 423.8,208.6 424.1,206.7 424.4,201.8 424.7,202.9 425.0,205.4 425.4,206.7 425.7,209.3 426.0,206.4 426.3,198.1 426.6,198.7 426.9,193.9 427.2,192.4 427.5,195.0 427.8,197.7 428.1,191.6 428.4,194.2 428.7,188.8 429.0,189.7 429.3,183.7 429.6,181.7 429.9,181.7 430.2,176.1 430.5,167.8 430.8,171.3 431.1,169.5 431.4,171.2 431.7,170.1 432.0,172.5 432.3,168.9 432.6,165.6 433.0,164.0 433.3,165.6 433.6,167.3 433.9,167.0 434.2,165.6 434.5,168.1 434.8,167.8 435.1,167.6 435.4,169.5 435.7,167.0 436.0,167.2 436.3,166.9 436.6,170.7 436.9,168.5 437.2,167.8 437.5,168.5 437.8,170.9 438.1,172.3 438.4,171.1 438.7,171.7 439.0,173.6 439.3,173.6 439.6,173.8 439.9,176.6 440.2,169.6 440.5,171.2 440.9,172.0 441.2,168.3 441.5,161.2 441.8,158.4 442.1,155.1 442.4,145.3 442.7,132.6 443.0,131.9 443.3,126.5 443.6,132.2 443.9,133.6 444.2,135.6 444.5,133.4 444.8,133.9 445.1,134.4 445.4,131.6 445.7,128.4 446.0,129.7 446.3,130.0 446.6,127.9 446.9,131.7 447.2,133.9 447.5,134.1 447.8,134.5 448.1,136.6 448.5,136.1 448.8,139.2 449.1,138.1 449.4,137.5 449.7,136.7 450.0,136.4 450.3,133.7 450.6,133.0 450.9,128.6 451.2,120.3 451.5,119.7 451.8,122.0 452.1,122.4 452.4,120.2 452.7,123.7 453.0,126.9 453.3,129.8 453.6,129.1 453.9,129.8 454.2,128.3 454.5,127.9 454.8,126.5 455.1,125.8 455.4,124.0 455.7,128.5 456.0,126.1 456.4,124.6 456.7,125.2 457.0,123.3 457.3,124.8 457.6,125.1 457.9,125.7 458.2,124.8 458.5,126.9 458.8,126.9 459.1,126.8 459.4,128.6 459.7,127.5 460.0,127.0 460.3,124.5 460.6,123.5 460.9,124.0 461.2,128.4 461.5,126.3 461.8,124.7 462.1,126.9 462.4,129.7 462.7,130.7 463.0,135.4 463.3,140.4 463.6,143.7 464.0,143.0 464.3,140.0 464.6,144.5 464.9,154.4 465.2,153.0 465.5,155.9 465.8,159.4 466.1,156.2 466.4,159.1 466.7,157.4 467.0,156.6 467.3,161.1 467.6,161.3 467.9,160.0 468.2,158.4 468.5,162.5 468.8,162.2 469.1,161.8 469.4,161.8 469.7,164.0 470.0,159.1 470.3,158.5 470.6,157.1 470.9,157.6 471.2,155.3 471.5,156.2 471.9,157.6 472.2,160.3 472.5,160.8 472.8,160.5 473.1,160.3 473.4,162.8 473.7,162.2 474.0,160.7 474.3,161.3 474.6,160.4 474.9,158.7 475.2,158.1 475.5,155.4 475.8,155.2 476.1,153.9 476.4,145.6 476.7,146.3 477.0,147.7 477.3,157.8 477.6,161.6 477.9,161.6 478.2,159.5 478.5,159.2 478.8,159.1 479.1,160.9 479.5,159.2 479.8,160.9 480.1,165.3 480.4,165.9 480.7,169.3 481.0,169.8 481.3,172.1 481.6,172.4 481.9,172.9 482.2,171.7 482.5,174.1 482.8,175.7 483.1,175.6 483.4,174.7 483.7,174.7 484.0,173.3 484.3,173.0 484.6,168.3 484.9,166.0 485.2,165.0 485.5,165.4 485.8,164.1 486.1,161.1 486.4,160.2 486.7,160.1 487.0,160.1 487.4,160.8 487.7,161.5 488.0,161.2 488.3,160.1 488.6,158.8 488.9,160.0 489.2,161.3 489.5,164.0 489.8,167.0 490.1,163.1 490.4,161.0 490.7,157.8 491.0,159.2 491.3,158.4 491.6,156.6 491.9,158.0 492.2,156.4 492.5,158.2 492.8,157.1 493.1,158.9 493.4,156.1 493.7,157.9 494.0,159.5 494.3,162.2 494.6,161.3 495.0,160.8 495.3,160.5 495.6,160.7 495.9,159.3 496.2,162.2 496.5,163.6 496.8,163.8 497.1,163.2 497.4,161.5 497.7,162.3 498.0,162.2 498.3,159.8 498.6,158.5 498.9,160.4 499.2,159.9 499.5,160.2 499.8,159.5 500.1,161.9 500.4,164.7 500.7,166.9 501.0,167.2 501.3,163.4 501.6,162.4 501.9,162.4 502.2,161.7 502.5,161.1 502.9,161.8 503.2,158.5 503.5,159.7 503.8,160.1 504.1,162.0 504.4,159.7 504.7,162.1 505.0,161.1 505.3,161.1 505.6,159.6 505.9,159.8 506.2,158.9 506.5,157.7 506.8,160.6 507.1,158.1 507.4,159.7 507.7,157.8 508.0,153.1 508.3,154.0 508.6,159.0 508.9,158.6 509.2,158.7 509.5,158.3 509.8,155.6 510.1,152.7 510.4,154.1 510.8,152.9 511.1,154.5 511.4,152.9 511.7,154.7 512.0,153.3 512.3,153.6 512.6,155.1 512.9,153.2 513.2,152.1 513.5,151.3 513.8,150.2 514.1,154.4 514.4,150.7 514.7,151.2 515.0,150.6 515.3,150.8 515.6,149.6 515.9,147.5 516.2,145.9 516.5,142.2 516.8,142.3 517.1,142.0 517.4,143.2 517.7,145.0 518.0,145.2 518.4,144.1 518.7,143.7 519.0,145.3 519.3,143.2 519.6,142.6 519.9,142.1 520.2,142.4 520.5,143.4 520.8,143.4 521.1,144.4 521.4,144.5 521.7,142.9 522.0,142.0 522.3,141.4 522.6,140.5 522.9,141.8 523.2,143.4 523.5,144.6 523.8,143.9 524.1,143.1 524.4,144.3 524.7,144.8 525.0,142.3 525.3,142.3 525.6,142.3 525.9,141.1 526.3,140.7 526.6,140.6 526.9,137.8 527.2,137.2 527.5,137.7 527.8,136.5 528.1,137.9 528.4,134.6 528.7,135.3 529.0,133.9 529.3,133.8 529.6,135.9 529.9,136.5 530.2,139.8 530.5,140.1 530.8,141.4 531.1,147.9 531.4,150.5 531.7,145.3 532.0,144.4 532.3,145.1 532.6,147.8 532.9,148.7 533.2,146.3 533.5,139.6 533.9,137.3 534.2,137.8 534.5,138.4 534.8,139.2 535.1,134.6 535.4,135.7 535.7,130.5 536.0,139.0 536.3,131.5 536.6,130.2 536.9,134.0 537.2,136.7 537.5,135.0 537.8,131.5 538.1,132.5 538.4,132.8 538.7,132.4 539.0,132.6 539.3,134.4 539.6,126.5 539.9,124.0 540.2,127.3 540.5,128.3 540.8,130.9 541.1,125.8 541.4,122.9 541.8,121.4 542.1,124.2 542.4,123.6 542.7,123.7 543.0,121.9 543.3,125.2 543.6,125.5 543.9,127.2 544.2,127.0 544.5,122.5 544.8,126.6 545.1,131.1 545.4,130.8 545.7,134.2 546.0,134.2 546.3,135.1 546.6,137.8 546.9,140.3 547.2,142.8 547.5,144.6 547.8,141.4 548.1,141.2 548.4,138.9 548.7,135.3 549.0,138.8 549.4,136.8 549.7,138.4 550.0,144.8 550.3,145.5 550.6,147.0 550.9,146.9 551.2,138.6 551.5,134.9 551.8,135.0 552.1,135.1 552.4,140.4 552.7,143.4 553.0,152.9 553.3,150.9 553.6,148.6 553.9,152.2 554.2,171.7 554.5,166.1 554.8,161.0 555.1,160.0 555.4,166.7 555.7,166.5 556.0,163.2 556.3,160.0 556.6,161.8 556.9,163.6 557.3,175.5 557.6,182.8 557.9,180.0 558.2,178.3 558.5,178.2 558.8,179.6 559.1,178.0 559.4,181.7 559.7,179.2 560.0,176.6 560.3,175.6 560.6,174.3 560.9,175.5 561.2,180.7 561.5,182.6 561.8,173.3 562.1,174.4 562.4,172.0 562.7,170.9 563.0,173.5 563.3,186.6 563.6,180.5 563.9,181.5 564.2,184.0 564.5,176.0 564.9,174.8 565.2,172.4 565.5,172.9 565.8,175.7 566.1,174.3 566.4,172.3 566.7,173.6 567.0,168.7 567.3,178.9 567.6,183.6 567.9,186.0 568.2,184.6 568.5,198.4 568.8,201.9 569.1,200.4 569.4,199.9 569.7,197.5 570.0,194.7 570.3,196.3 570.6,194.8 570.9,198.6 571.2,200.6 571.5,199.6 571.8,200.9 572.1,200.2 572.4,202.1 572.8,201.6 573.1,202.0 573.4,201.1 573.7,200.5 574.0,200.3 574.3,203.0 574.6,200.7 574.9,202.9 575.2,205.1 575.5,208.0 575.8,207.7 576.1,204.6 576.4,204.5 576.7,206.8 577.0,204.9 577.3,203.2 577.6,200.6 577.9,201.2 578.2,201.5 578.5,205.1 578.8,203.9 579.1,203.1 579.4,199.9 579.7,199.5 580.0,194.3 580.3,195.4 580.7,198.1 581.0,201.6 581.3,199.7 581.6,201.7 581.9,200.6 582.2,201.2 582.5,204.1 582.8,203.4 583.1,205.0 583.4,208.8 583.7,205.3 584.0,206.7 584.3,205.8 584.6,205.9 584.9,208.2 585.2,207.5 585.5,212.2 585.8,209.3 586.1,209.7 586.4,210.2 586.7,211.5 587.0,208.0 587.3,208.2 587.6,208.0 587.9,208.0 588.3,210.4 588.6,213.1 588.9,215.5 589.2,215.4 589.5,217.1 589.8,216.0 590.1,218.8 590.4,220.0 590.7,216.9 591.0,216.0 591.3,218.6 591.6,215.1 591.9,215.7 592.2,215.3 592.5,213.8 592.8,215.3 593.1,214.9 593.4,215.9 593.7,214.5 594.0,212.7 594.3,212.9 594.6,214.5 594.9,213.0 595.2,212.6 595.5,214.5 595.8,214.1 596.2,216.6 596.5,214.9 596.8,215.2 597.1,217.1 597.4,218.2 597.7,219.6 598.0,224.4 598.3,231.1 598.6,231.5 598.9,233.1 599.2,231.7 599.5,229.6 599.8,231.8 600.1,233.6 600.4,232.5 600.7,230.8 601.0,230.9 601.3,231.6 601.6,230.7 601.9,226.5 602.2,227.9 602.5,230.7 602.8,227.2 603.1,229.9 603.4,230.5 603.8,229.8 604.1,231.0 604.4,229.5 604.7,230.2 605.0,230.9 605.3,231.4 605.6,232.8 605.9,231.4 606.2,232.1 606.5,233.7 606.8,233.8 607.1,231.8 607.4,230.7 607.7,230.8 608.0,230.7 608.3,228.2 608.6,229.6 608.9,230.3 609.2,230.2 609.5,230.9 609.8,232.5 610.1,233.0 610.4,233.7 610.7,233.8 611.0,233.6 611.3,233.1 611.7,228.4 612.0,225.5 612.3,223.9 612.6,227.4 612.9,227.2 613.2,227.8 613.5,225.4 613.8,225.1 614.1,227.0 614.4,225.5 614.7,222.5 615.0,223.8 615.3,224.6 615.6,224.1 615.9,225.7 616.2,225.9 616.5,222.5 616.8,224.2 617.1,222.1 617.4,224.4 617.7,225.1 618.0,225.7 618.3,222.1 618.6,220.0 618.9,220.1 619.3,219.3 619.6,219.5 619.9,219.0 620.2,217.7 620.5,216.8 620.8,218.4 621.1,217.4 621.4,216.1 621.7,216.3 622.0,215.0 622.3,215.8 622.6,218.9 622.9,219.5 623.2,218.8 623.5,217.9 623.8,220.2 624.1,220.3 624.4,218.8 624.7,218.5 625.0,218.7 625.3,217.3 625.6,217.9 625.9,214.3 626.2,219.6 626.5,217.7 626.8,217.1 627.2,215.7 627.5,209.7 627.8,209.0 628.1,206.4 628.4,202.9 628.7,202.5 629.0,201.3 629.3,202.1 629.6,203.0 629.9,203.9 630.2,206.8 630.5,210.8 630.8,208.0 631.1,205.7 631.4,207.3 631.7,208.2 632.0,210.0 632.3,210.3 632.6,211.1 632.9,208.9 633.2,208.1 633.5,210.1 633.8,216.4 634.1,210.6 634.4,216.5 634.8,218.4 635.1,215.2 635.4,217.2 635.7,214.0 636.0,215.4 636.3,215.1 636.6,214.0 636.9,215.7 637.2,216.5 637.5,217.8 637.8,219.1 638.1,223.4 638.4,224.0 638.7,224.7 639.0,226.9 639.3,227.0 639.6,229.4 639.9,230.4 640.2,231.8 640.5,234.1 640.8,240.1 641.1,243.7 641.4,241.2 641.7,240.4 642.0,240.3 642.3,241.0 642.7,241.6 643.0,242.2 643.3,234.7 643.6,233.8 643.9,228.2 644.2,226.3 644.5,224.3 644.8,219.0 645.1,218.3 645.4,222.8 645.7,218.2 646.0,216.3 646.3,219.0 646.6,221.5 646.9,220.7 647.2,222.0 647.5,222.1 647.8,220.4 648.1,220.7 648.4,221.5 648.7,219.1 649.0,219.5 649.3,218.8 649.6,219.6 649.9,220.6 650.3,220.7 650.6,227.6 650.9,224.1 651.2,217.9 651.5,213.8 651.8,217.0 652.1,216.1 652.4,216.0 652.7,214.5 653.0,215.1 653.3,210.8 653.6,208.9 653.9,210.2 654.2,209.8 654.5,214.8 654.8,217.5 655.1,219.3 655.4,220.2 655.7,222.4 656.0,223.1 656.3,223.7 656.6,222.4 656.9,220.5 657.2,222.2 657.5,223.4 657.8,222.9 658.2,218.8 658.5,220.2 658.8,221.6 659.1,223.2 659.4,224.3 659.7,222.2 660.0,222.9 660.3,220.3 660.6,220.0 660.9,220.4 661.2,219.8 661.5,218.4 661.8,218.3 662.1,216.4 662.4,215.6 662.7,215.7 663.0,213.4 663.3,214.7 663.6,215.8 663.9,217.1 664.2,218.9 664.5,217.4 664.8,217.9 665.1,216.8 665.4,218.2 665.7,218.5 666.1,218.9 666.4,221.1 666.7,220.6 667.0,221.7 667.3,224.6 667.6,222.7 667.9,224.5 668.2,224.7 668.5,223.8 668.8,226.2 669.1,224.0 669.4,219.7 669.7,217.5 670.0,219.1 670.3,216.4 670.6,214.5 670.9,213.4 671.2,214.9 671.5,212.4 671.8,212.0 672.1,210.6 672.4,212.6 672.7,208.8 673.0,209.1 673.3,209.4 673.7,214.2 674.0,214.0 674.3,212.7 674.6,211.3 674.9,218.3 675.2,217.1 675.5,219.2 675.8,220.1 676.1,221.1 676.4,215.7 676.7,214.1 677.0,216.2 677.3,214.8 677.6,214.8 677.9,215.1 678.2,214.0 678.5,211.5 678.8,210.4 679.1,209.3 679.4,208.4 679.7,208.8 680.0,208.2 680.3,208.8 680.6,206.2 680.9,203.3 681.2,203.1 681.6,202.7 681.9,200.7 682.2,203.3 682.5,198.2 682.8,197.5 683.1,198.1 683.4,198.5 683.7,198.4 684.0,201.9 684.3,202.8 684.6,204.8 684.9,204.1 685.2,204.9 685.5,206.0 685.8,207.9 686.1,209.1 686.4,213.0 686.7,213.4 687.0,211.6 687.3,210.0 687.6,209.4 687.9,208.6 688.2,206.1 688.5,205.0 688.8,201.9 689.2,204.8 689.5,204.5 689.8,203.5 690.1,206.1 690.4,204.7 690.7,206.3 691.0,206.5 691.3,208.0 691.6,208.6 691.9,207.9 692.2,208.6 692.5,207.6 692.8,206.2 693.1,206.0 693.4,205.9 693.7,203.5 694.0,204.3 694.3,205.1 694.6,205.9 694.9,202.4 695.2,204.4 695.5,200.3 695.8,200.9 696.1,202.7 696.4,205.1 696.7,206.1 697.1,204.0 697.4,205.1 697.7,207.1 698.0,206.2 698.3,205.7 698.6,204.5 698.9,206.3 699.2,207.5 699.5,208.4 699.8,208.2 700.1,204.6 700.4,202.1 700.7,201.6 701.0,195.3 701.3,207.8 701.6,213.9 701.9,218.1 702.2,216.8 702.5,223.6 702.8,223.3 703.1,214.5 703.4,216.5 703.7,220.3 704.0,219.0 704.3,212.4 704.7,204.0 705.0,210.2 705.3,216.8 705.6,207.8 705.9,207.3 706.2,208.4 706.5,204.5 706.8,206.6 707.1,211.1 707.4,212.0 707.7,210.0 708.0,210.4 708.3,211.4 708.6,212.0 708.9,213.3 709.2,214.7 709.5,215.3 709.8,217.5 710.1,213.2 710.4,213.2 710.7,212.6 711.0,211.8 711.3,212.5 711.6,212.1 711.9,217.1 712.2,214.9 712.6,215.5 712.9,215.0 713.2,214.3 713.5,211.6 713.8,212.3 714.1,212.7 714.4,212.3 714.7,209.9 715.0,210.3 715.3,210.6 715.6,211.4 715.9,212.9 716.2,211.2 716.5,210.5 716.8,209.8 717.1,209.9 717.4,208.6 717.7,205.4 718.0,206.8 718.3,205.8 718.6,206.4 718.9,198.7 719.2,198.1 719.5,196.1 719.8,193.7 720.2,191.8 720.5,190.8 720.8,190.9 721.1,188.2 721.4,186.1 721.7,186.3 722.0,194.6 722.3,192.6 722.6,201.2 722.9,200.4 723.2,194.0 723.5,197.1 723.8,196.8 724.1,192.3 724.4,192.6 724.7,193.5 725.0,201.1 725.3,198.3 725.6,195.9 725.9,200.0 726.2,203.1 726.5,202.3 726.8,204.7 727.1,204.3 727.4,201.7 727.7,198.0 728.1,194.3 728.4,189.6 728.7,192.8 729.0,198.6 729.3,200.6 729.6,200.1 729.9,203.0 730.2,200.0 730.5,200.2 730.8,198.3 731.1,199.4 731.4,200.8 731.7,198.2 732.0,205.7 732.3,205.0 732.6,200.3 732.9,193.6 733.2,193.3 733.5,198.7 733.8,198.0 734.1,191.5 734.4,194.5 734.7,186.8 735.0,184.7 735.3,192.3 735.7,192.5 736.0,186.3 736.3,185.6 736.6,184.6 736.9,187.2 737.2,194.7 737.5,195.1 737.8,192.1 738.1,190.0 738.4,190.6 738.7,187.1 739.0,186.2 739.3,186.6 739.6,180.4 739.9,179.9 740.2,192.8 740.5,192.1 740.8,184.3 741.1,190.0 741.4,194.1 741.7,191.8 742.0,188.1 742.3,187.4 742.6,190.7 742.9,187.6 743.2,180.8 743.6,177.5 743.9,172.4 744.2,169.2 744.5,169.2 744.8,161.0 745.1,160.5 745.4,155.1 745.7,154.1 746.0,151.1 746.3,151.7 746.6,157.5 746.9,159.2 747.2,159.2 747.5,158.8 747.8,158.7 748.1,151.1 748.4,152.5 748.7,154.1 749.0,153.5 749.3,152.6 749.6,153.8 749.9,151.4 750.2,148.4 750.5,151.1 750.8,148.5 751.1,151.7 751.5,155.0 751.8,155.9 752.1,150.6 752.4,150.5 752.7,149.2 753.0,147.1 753.3,151.4 753.6,152.7 753.9,156.0 754.2,154.9 754.5,159.0 754.8,162.0 755.1,168.2 755.4,171.7 755.7,174.3 756.0,172.5 756.3,166.7 756.6,164.7 756.9,160.8 757.2,160.6 757.5,158.2 757.8,154.7 758.1,155.8 758.4,155.2 758.7,157.6 759.1,158.0 759.4,155.8 759.7,157.3 760.0,157.1 760.3,158.0 760.6,156.1 760.9,155.8 761.2,153.9 761.5,152.1 761.8,152.2 762.1,150.2 762.4,144.4 762.7,143.6 763.0,144.0 763.3,143.2 763.6,141.4 763.9,141.5 764.2,141.0 764.5,141.0 764.8,144.0 765.1,142.1 765.4,140.4 765.7,137.4 766.0,137.1 766.3,137.2 766.6,134.0 767.0,133.5 767.3,135.5 767.6,136.6 767.9,137.0 768.2,140.0 768.5,140.1 768.8,137.7 769.1,138.5 769.4,138.8 769.7,135.3 770.0,131.9 770.3,134.4 770.6,135.9 770.9,132.3 771.2,129.6 771.5,128.4 771.8,130.3 772.1,130.5 772.4,133.2 772.7,132.6 773.0,131.8 773.3,132.0 773.6,130.4 773.9,128.6 774.2,126.8 774.6,126.7 774.9,127.5 775.2,127.7 775.5,128.2 775.8,130.0 776.1,128.2 776.4,129.6 776.7,129.5 777.0,129.5 777.3,127.3 777.6,127.6 777.9,124.2 778.2,126.0 778.5,127.5 778.8,125.7 779.1,124.3 779.4,123.2 779.7,122.5 780.0,120.7 780.3,119.9 780.6,119.4 780.9,117.0 781.2,119.4 781.5,121.9 781.8,122.8 782.1,125.0 782.5,126.7 782.8,125.3 783.1,123.9 783.4,125.7 783.7,126.7 784.0,130.1 784.3,135.8 784.6,135.0 784.9,143.4 785.2,144.3 785.5,147.9 785.8,146.9 786.1,143.9 786.4,143.0 786.7,142.8 787.0,136.7 787.3,140.0 787.6,142.7 787.9,143.9 788.2,145.8 788.5,146.3 788.8,150.1 789.1,152.2 789.4,150.3 789.7,151.3 790.1,146.9 790.4,142.9 790.7,142.1 791.0,159.4 791.3,159.8 791.6,157.0 791.9,160.3 792.2,160.5 792.5,159.0 792.8,153.6 793.1,151.9 793.4,149.3 793.7,151.2 794.0,149.8 794.3,151.9 794.6,153.4 794.9,155.7 795.2,161.7 795.5,159.5 795.8,160.1 796.1,157.4 796.4,156.4 796.7,154.7 797.0,158.6 797.3,157.0 797.6,157.8 798.0,156.4 798.3,160.5 798.6,160.5 798.9,159.8 799.2,159.9 799.5,163.2 799.8,162.1 800.1,160.3 800.4,161.0 800.7,156.7 801.0,161.1 801.3,157.8 801.6,162.2 801.9,161.0 802.2,159.0 802.5,162.8 802.8,167.7 803.1,167.8 803.4,168.7 803.7,167.3 804.0,166.0 804.3,163.7 804.6,164.3 804.9,165.7 805.2,165.9 805.6,165.2 805.9,166.3 806.2,164.5 806.5,163.6 806.8,162.9 807.1,161.3 807.4,160.8 807.7,161.7 808.0,160.0 808.3,160.4 808.6,161.2 808.9,161.4 809.2,161.4 809.5,160.8 809.8,159.9 810.1,162.5 810.4,160.9 810.7,160.7 811.0,162.0 811.3,161.0 811.6,159.8 811.9,159.8 812.2,164.5 812.5,162.5 812.8,164.2 813.1,161.1 813.5,158.6 813.8,158.6 814.1,156.6 814.4,160.0 814.7,153.5 815.0,151.3 815.3,152.6 815.6,154.9 815.9,158.1 816.2,156.8 816.5,156.3 816.8,157.2 817.1,156.1 817.4,155.7 817.7,157.4 818.0,157.7 818.3,158.5 818.6,165.7 818.9,165.8 819.2,162.7 819.5,162.0 819.8,163.7 820.1,164.6 820.4,162.7 820.7,162.0 821.0,162.5 821.4,159.6 821.7,160.4 822.0,158.3 822.3,162.8 822.6,162.4 822.9,161.2 823.2,160.3 823.5,157.0 823.8,156.1 824.1,153.0 824.4,150.7 824.7,155.4 825.0,160.6 825.3,160.2 825.6,159.9 825.9,157.8 826.2,160.6 826.5,164.7 826.8,164.2 827.1,167.2 827.4,169.7 827.7,171.9 828.0,171.0 828.3,173.9 828.6,174.2 829.0,175.9 829.3,176.0 829.6,176.4 829.9,175.0 830.2,173.6 830.5,173.9 830.8,171.6 831.1,168.0 831.4,168.3 831.7,172.1 832.0,170.7 832.3,170.3 832.6,167.9 832.9,167.8 833.2,170.6 833.5,169.3 833.8,168.1 834.1,171.5 834.4,169.3 834.7,168.1 835.0,163.8 835.3,163.7 835.6,161.0 835.9,162.4 836.2,158.7 836.5,156.7 836.9,159.6 837.2,157.1 837.5,155.4 837.8,154.3 838.1,156.0 838.4,152.3 838.7,155.1 839.0,156.1 839.3,156.6 839.6,154.6 839.9,157.0 840.2,154.5 840.5,153.0 840.8,152.6 841.1,153.8 841.4,151.6 841.7,152.0 842.0,151.3 842.3,153.0 842.6,154.0 842.9,152.4 843.2,153.4 843.5,153.8 843.8,153.7 844.1,153.5 844.5,156.1 844.8,148.6 845.1,148.7 845.4,149.4 845.7,150.6 846.0,151.1 846.3,150.8 846.6,149.2 846.9,150.2 847.2,152.2 847.5,152.5 847.8,153.7 848.1,152.1 848.4,150.5 848.7,154.4 849.0,154.5 849.3,154.8 849.6,152.2 849.9,154.0 850.2,153.0 850.5,153.4 850.8,152.4 851.1,152.4 851.4,152.0 851.7,151.3 852.0,153.2 852.4,153.4 852.7,155.2 853.0,157.9 853.3,157.6 853.6,157.0 853.9,155.9 854.2,158.4 854.5,157.9 854.8,160.1 855.1,160.1 855.4,157.8 855.7,156.7 856.0,155.6" fill="none" stroke="#c4622d" stroke-width="1.9" stroke-linejoin="round" stroke-linecap="round"/>
<rect x="64" y="360" width="10" height="10" rx="2" fill="#2f5d8a"/>
<text x="79.0" y="369.0" font-size="11" fill="#1f2937" text-anchor="start" font-weight="normal" font-family="Inter, Segoe UI, Helvetica, Arial, sans-serif">Portfolio</text>
<rect x="143.6" y="360" width="10" height="10" rx="2" fill="#c4622d"/>
<text x="158.6" y="369.0" font-size="11" fill="#1f2937" text-anchor="start" font-weight="normal" font-family="Inter, Segoe UI, Helvetica, Arial, sans-serif">Benchmark 60/40</text>
</svg>